<svg xmlns="http://www.w3.org/2000/svg" xmlns:xlink="http://www.w3.org/1999/xlink" width="371" height="177" viewBox="0 0 371 177">
    <defs>
        <path id="a" d="M6 0h359a6 6 0 0 1 6 6v171H0V6a6 6 0 0 1 6-6z"/>
    </defs>
    <g fill="none" fill-rule="evenodd">
        <mask id="b" fill="#fff">
            <use xlink:href="#a"/>
        </mask>
        <use fill="#F9F6EC" xlink:href="#a"/>
        <g mask="url(#b)">
            <path fill="#FBAD83" d="M180 76.79s2.17-4.865 4.158-6.713c1.989-1.85 7.232-1.842 11.842 4.283 0 0-.18.589-2.08 1.602-1.897 1.012-5.061-.553-6.103-.645-1.041-.092-4.834 3.683-4.834 3.683L180 76.79z"/>
            <path fill="#303D72" d="M73 43h1v122h-1zM78 55h1v122h-1zM76 80h1v101h-1zM67 93h1v101h-1zM81 112h1v85h-1z"/>
            <path fill="#303D72" d="M64.9 67.642c6.025-3.086 12.855-1.696 15.26 3.105 2.405 4.8-.532 11.207-6.557 14.274-6.025 3.067-18.8 14.625-21.2 9.828C50 90.053 58.875 70.724 64.9 67.642zM58.207 128.291c5.23-5.57 14.196-5.743 20.053-.369 5.857 5.375 6.35 14.219 1.12 19.789-5.23 5.57-13.19 23.668-19.05 18.308-5.862-5.36-7.353-32.158-2.123-37.728zM101.596 141.586c-8.986-2.454-18.345 3.027-20.932 12.238-2.587 9.21 2.62 18.673 11.606 21.123 8.985 2.45 28.873 16.113 31.448 6.898 2.576-9.214-13.137-37.806-22.122-40.26z"/>
            <path fill="#00C99C" d="M53.445 95.21c7.143-4.78 16.015-4.149 19.824 1.407 3.808 5.556 1.127 13.93-6.016 18.706S45.78 136.416 41.971 130.86c-3.809-5.556 4.338-30.876 11.474-35.651z"/>
            <path fill="#00B98F" d="M53.961 95.145C47.507 99.562 40.19 121.84 42.404 129c5.956-18.182 9.824-23.562 15.993-30.167A30.107 30.107 0 0 1 67 92.413c-3.966-1.025-8.816-.153-13.039 2.732z"/>
            <path fill="#00C99C" d="M94.01 71.964c-8.126-2.657-16.408.371-18.52 6.733-2.11 6.362 2.783 13.704 10.909 16.35 8.126 2.646 26.295 14.466 28.398 8.09 2.103-6.377-12.66-28.513-20.787-31.173z"/>
            <path fill="#00B98F" d="M93.825 72.97c7.717 2.511 21.358 22.356 21.173 30.03-11.115-16.202-16.515-20.397-24.564-25.149A31.522 31.522 0 0 0 80 73.977c3.673-2.135 8.779-2.65 13.825-1.007z"/>
            <path fill="#00C99C" d="M84.836 47.543c-5.21 2.136-8.064 7.108-6.326 11.11 1.738 4.003 7.372 5.514 12.6 3.377 5.23-2.137 19.476-4.042 17.745-8.044-1.73-4.003-18.794-8.576-24.019-6.443z"/>
            <path fill="#303D72" d="M73.5 34.295c3.247 2.206 4.443 6.071 2.699 8.612-1.744 2.541-5.825 2.806-9.066.588-3.24-2.217-12.684-5.537-10.914-8.078 1.77-2.541 14.032-3.34 17.28-1.122z"/>
            <path fill="#00B98F" d="M84.432 47.557c4.924-2.06 20.339 1.973 23.568 5.88-12.562-3.306-17.069-3.076-23.128-1.99A20.685 20.685 0 0 0 78 54c.901-2.645 3.21-5.09 6.432-6.443z"/>
            <path fill="#00C99C" d="M99.829 114.963c-9.651-6.627-22.45-6.616-28.59.027-6.14 6.642-3.29 17.398 6.353 24.025 9.644 6.628 28.209 28.381 34.345 21.738 6.137-6.642-2.461-39.163-12.108-45.79z"/>
            <path fill="#00B98F" d="M100.37 114.93c8.728 6.195 16.568 35.173 12.547 44.07-6.373-23.646-11.282-30.83-19.338-39.788A41.714 41.714 0 0 0 82 110.27c5.797-.95 12.66.607 18.37 4.66z"/>
            <path fill="#FF9398" d="M96.199 168H64.798C62.703 168 61 175.832 61 185.502V203h39v-17.483c0-9.685-1.7-17.517-3.801-17.517z"/>
            <path fill="#F4828B" d="M74 168h-8.166C63.72 168 62 175.832 62 185.502V203h8.166v-17.483C70.166 175.832 71.882 168 74 168z"/>
            <path fill="#FFB0B2" d="M98.092 172H64.904c-1.596-.012-2.888-1.323-2.904-2.947V165h39v4.053c-.016 1.625-1.31 2.937-2.908 2.947z"/>
            <path fill="#00C99C" d="M42.455 154.445c3.959-7.818 11.947-11.52 17.848-8.261 5.902 3.259 7.471 12.234 3.512 20.055-3.959 7.822-8.763 29.698-14.665 26.431-5.901-3.267-10.654-30.403-6.695-38.225z"/>
            <path fill="#00B98F" d="M41.465 154.977c-3.753 7.283.267 31.496 5.704 37.023-3.295-19.752-2.357-26.641.086-35.81A32.179 32.179 0 0 1 52 146c-4.09 1-8.085 4.198-10.535 8.977z"/>
            <path fill="#222747" d="M316 202H152v-95.398c.002-9.168 7.492-16.6 16.732-16.602h130.54c9.24.002 16.728 7.434 16.728 16.602V202z"/>
            <path fill="#FF9398" d="M302 202H138v-95.398c.002-9.168 7.492-16.6 16.732-16.602h130.54c9.24.002 16.728 7.434 16.728 16.602V202z"/>
            <g fill="#F4828B">
                <path d="M221.642 90.267l-14.857 46.005 72.236 3.59 3.96-21.476-3.96-28.119zM164.219 90.267l4.676 12.53 10.999-12.53h8.284l-14.07 34.815 8.122 22.831h-41.565l-1.56-37.274 10.174-20.372h9.585z"/>
            </g>
            <path fill="#303D72" d="M135.86 131H90v72h54v-63.953a7.995 7.995 0 0 0-2.383-5.69A8.19 8.19 0 0 0 135.86 131z"/>
            <path fill="#FF9398" d="M97.998 203H82.002v-63.799a8.033 8.033 0 0 1 3.948-7.096 7.976 7.976 0 0 1 8.1 0 8.033 8.033 0 0 1 3.948 7.096V203z"/>
            <path fill="#FF9398" d="M96 147h147v14H96z"/>
            <path fill="#FFB0B2" d="M241 203H97v-41h144z"/>
            <g fill="#F4828B">
                <path d="M132.767 161.341l-6.432 41.52h23.326l7.158-41.516zM203.068 161.341l4.474 41.52h23.326l-.064-41.516z"/>
            </g>
            <path fill="#F89900" d="M231.835 76l-7.316 32.445L201 123.07l2.427 4.93s21.484-2.86 27.624-6.129c6.141-3.269.784-45.871.784-45.871z"/>
            <path fill="#F9C200" d="M254.643 68l16.032 5.197L273 130.022s-13.808 11.001-38.931 5.377L229 134.013l3.337-55.341c.215-3.584 2.4-6.743 5.658-8.176l5.317-2.35 11.33-.146z"/>
            <path fill="#FBAD83" d="M255 54v14.198s-2.443 2.024-6.745 1.782c-3.976-.225-4.61-1.63-4.61-1.63L242 60.99 254.993 54"/>
            <path fill="#E68D5C" d="M243.361 65.997a17.374 17.374 0 0 0 4.375-2.427c1.985-1.424 3.469-3.362 4.264-5.57l-8.665 1.53-1.335.685L243.361 66"/>
            <path fill="#1A2249" d="M233 44h7v1h-7z"/>
            <path fill="#7A4029" d="M234.287 34.715S233 37.855 233 40.605c0 2.212.894 6.395.894 6.395L239 34l-4.713.715z"/>
            <path fill="#FBAD83" d="M234.752 58.45c3.95 8.366 13.752 3.424 17.946-.79 4.194-4.215 3.619-20.335 2.457-23.395-1.162-3.06-10.864-5.529-15.976-3.56-5.113 1.967-8.374 19.372-4.427 27.734"/>
            <path fill="#D7C5BE" d="M234 53c.19 2.143.69 4.239 1.484 6.206C236.997 62.728 239.39 64 242 64c-2.6 0-5-1.287-6.512-4.794A21.851 21.851 0 0 1 234 53"/>
            <path fill="#D48C68" d="M256 47h-4.483s-2.967 7.732-5.515 8.47a2.21 2.21 0 0 1-.628.086c-2.122 0-4.946-2.561-8.51-2.71-.333 0-.628-.022-.901-.022-1.525 0-2.208.226-2.963.742.203 2.033.731 4.02 1.565 5.887 1.592 3.34 4.11 4.547 6.853 4.547 4.143 0 8.761-2.802 11.32-5.338 2.059-2.041 2.99-6.866 3.255-11.65"/>
            <path fill="#7A4029" d="M255.057 47.828a5.297 5.297 0 0 1-3.661-1.986 5.436 5.436 0 0 1-1.135-4.047c.225-1.827.756-2.407.288-4.137-.934-3.443-5.007-3.121-7.748-1.84-2.742 1.283-5.752 1.283-8.117-.53-1.129-.863-2.546-3.26-1.011-5.767 1.535-2.508 6.995-5.521 6.995-5.521s-.66 1.495-.439 2.287c.222.793 14.692-3.625 17.665 2.897 2.974 6.523-.992 18.816-.992 18.816l-1.845-.172z"/>
            <path fill="#FBAD83" d="M257 47.91c0 2.157-2.7 4.09-4.356 4.09-1.654 0-1.644-1.918-1.644-4.09 0-2.17 1.343-3.91 2.998-3.91 1.655 0 3.002 1.747 3.002 3.91z"/>
            <path fill="#E68D5C" d="M255.976 47.57c.198 1.031-.87 2.236-1.635 2.415-.766.178.877-1.23.678-2.26-.198-1.03-1.552-1.519-.787-1.697.766-.178 1.545.512 1.744 1.542z"/>
            <path fill="#1A2249" fill-rule="nonzero" d="M235.002 50c-1.655 0-3.002-1.793-3.002-3.998S233.347 42 235.002 42c1.655 0 2.998 1.793 2.998 4.002 0 2.209-1.347 3.998-2.998 3.998zm0-7.608c-1.446 0-2.622 1.62-2.622 3.61 0 1.99 1.176 3.606 2.622 3.606s2.618-1.617 2.618-3.606c0-1.99-1.176-3.61-2.618-3.61zM241.998 50c-1.651 0-2.998-1.793-2.998-3.998S240.347 42 241.998 42c1.651 0 3.002 1.793 3.002 4.002 0 2.209-1.347 3.998-3.002 3.998zm0-7.608c-1.442 0-2.618 1.62-2.618 3.61 0 1.99 1.176 3.606 2.618 3.606s2.622-1.617 2.622-3.606c0-1.99-1.176-3.61-2.622-3.61z"/>
            <path fill="#1A2249" d="M245 44h7v1h-7zM238 44h1v1h-1z"/>
            <path fill="#FFF" d="M235 55h6s-1.213 2.913-3.24 2.998C235.735 58.083 235 55 235 55z"/>
            <path fill="#EDB607" d="M263.134 108.692l-33.326 12.832L229 135l5.085 1.393C259.18 142.04 273 130.99 273 130.99l-1.112-26.87L266.114 92l-2.98 16.692z"/>
            <path fill="#0CBFD1" d="M239.401 131.845s-27.016-3.044-38.142-2.835c-11.125.21-10.04 17.977-10.255 24.04-.215 6.062 8.013 36.703 8.013 36.703 3.806.58 7.699.133 11.27-1.294l-2.165-41.704H241l-1.599-14.91z"/>
            <path fill="#60D6E6" d="M258.409 131.827s-27.014-3.025-38.144-2.817c-11.13.208-10.037 17.862-10.256 23.885-.218 6.023 3.45 35.053 3.45 35.053s5.894 2.367 11.786 0l1.875-41.307H260l-1.591-14.814z"/>
            <path fill="#50CAD3" d="M231.608 147h15.073L257 145.148l-1.331-12.518S237.104 130.513 225 130l6.608 17z"/>
            <path fill="#303D72" d="M293.86 131H248v72h54v-63.953a7.995 7.995 0 0 0-2.383-5.69A8.19 8.19 0 0 0 293.86 131z"/>
            <path fill="#FF9398" d="M257.998 203h-15.996v-63.799a8.033 8.033 0 0 1 3.948-7.096 7.976 7.976 0 0 1 8.1 0 8.033 8.033 0 0 1 3.948 7.096V203z"/>
            <path fill="#FBAD83" d="M228.525 122.044s-5.7-.396-9.745 1.19c-4.045 1.586-4.78 4.754-4.78 4.754s7.888.026 10.48 0c2.593-.025 6.52-2.99 6.52-2.99l-2.475-2.954z"/>
            <path fill="#A9C2DC" d="M222 129h-33.838a1.178 1.178 0 0 1-1.162-1.186v-24.628a1.178 1.178 0 0 1 1.162-1.186H222v27z"/>
            <path fill="#303D72" d="M223 129h-1.019c-.26 0-.51-.093-.694-.258a.84.84 0 0 1-.287-.624v-25.236c0-.487.44-.882.981-.882H223v27z"/>
            <path fill="#FFF" d="M207 115.002c0 1.655-.895 2.998-2 2.998s-2-1.343-2-2.998c0-1.655.895-3.002 2-3.002s2 1.343 2 3.002z"/>
            <path fill="#303D72" d="M224 128h20v2h-20z"/>
            <path fill="#A9C2DC" d="M188 128h35v2h-35z"/>
            <path fill="#F9C200" d="M264.357 74.065l3.138 37.655-40.937 9.452s-1.255 3.532 0 6.828c0 0 42.945-2.58 49.726-6.329 6.781-3.75-1.066-43.365-2.761-46.117-2.89-4.687-9.166-1.489-9.166-1.489z"/>
            <path fill="#0CBFD1" d="M153 74l10.253 27.12 16.829-25.786s3.972 1.296 4.918 3.519c0 0-11.54 26.557-17.593 32.817-6.053 6.26-13.219-2.078-13.219-2.078L153 74z"/>
            <path fill="#60D6E6" d="M143.172 67.379L133.325 67s-7.29 1.539-11.777 5.544c-4.487 4.006-1.683 61.623-1.683 61.623s17.325 6.219 27.854 4.548c7.757-1.228 10.281-2.842 10.281-2.842s-1.817-57.481-5.021-63.34c-3.204-5.859-9.807-5.154-9.807-5.154z"/>
            <path fill="#50CAD3" d="M147.718 139.714c7.758-1.23 10.282-2.848 10.282-2.848s-.243-7.764-.714-17.883l-34.922-6.812L127.176 90l-8.147 5.844c-.213 17.697.833 39.314.833 39.314s17.327 6.23 27.856 4.556z"/>
            <path fill="#1A2249" d="M142 62.194L154 64V46z"/>
            <path fill="#FBAD83" d="M133 53v14.199s2.07 2.023 5.707 1.78c2.674-.177 3.862-1.418 3.862-1.418L144 59.987 133 53z"/>
            <path fill="#E68D5C" d="M133 54.588c.103.268.224.527.363.775 1.878 3.34 5.673 8.254 9.664 9.637l.973-5.518L133 52v2.588z"/>
            <path fill="#FBAD83" d="M153.25 59.066c-3.94 8.248-13.86 1.61-18.046-2.563-4.186-4.174-3.466-18.288-2.307-21.297 1.159-3.01 10.837-5.455 15.94-3.511 5.101 1.944 8.353 19.122 4.413 27.37z"/>
            <path fill="#1A2249" d="M139.67 66l-10.32-3.423s-1.522-23.243 1.787-29.068c3.31-5.825 12.028-7.78 17.662-5.705 8.201 3.02 8.08 13.679 8.201 14.621a16.977 16.977 0 0 0-5.76-.037 21.751 21.751 0 0 1-6.409.182l-4.02-.473L139.668 66z"/>
            <path fill="#FBAD83" d="M133 50.935c0 1.62 2.248 3.065 3.628 3.065S138 52.56 138 50.935 136.88 48 135.5 48s-2.5 1.314-2.5 2.935z"/>
            <path fill="#FFF" d="M139 54a2 2 0 1 1-4 0 2 2 0 0 1 4 0z"/>
            <path fill="#1A2249" fill-rule="nonzero" d="M154.498 53c-1.93 0-3.498-1.716-3.498-3.83V49h7v.17c0 2.114-1.568 3.83-3.502 3.83zm-3.125-3.675c.07 1.854 1.446 3.337 3.125 3.337 1.68 0 3.06-1.483 3.13-3.337h-6.255zM146.502 53c-1.93 0-3.502-1.716-3.502-3.83V49h7v.17c0 2.114-1.568 3.83-3.498 3.83zm-3.11-3.675c.073 1.854 1.446 3.337 3.128 3.337 1.683 0 3.056-1.483 3.13-3.337h-6.259z"/>
            <path fill="#1A2249" d="M138 48h13v1h-13z"/>
            <path fill="#222747" d="M141.771 131.461s27.134-3.515 32.648.36c5.513 3.875 5.717 11.483 2.385 17.628-2.2 4.063-36.009 40.551-36.009 40.551s-3.271-1.838-3.795-4.697l26.264-38.097-17.615-.149-3.878-15.596z"/>
            <path fill="#FFF" d="M158.758 133H144l8.242-17H167z"/>
            <path fill="#FBAD83" d="M142.039 130.29c2.06.632 4.236.846 6.386.626 3.68-.36 4.333-2.01 4.568-3.316.235-1.308-5.302-1.099-5.302-1.099l.574-1.116s-.82-.5-2.405-.36c-1.584.14-1.637 1.404-2.893 1.631-1.256.227-.928 3.634-.928 3.634z"/>
            <path fill="#60D6E6" d="M120.033 74s-12.08 30.284-13.014 39.018c-.934 8.734 33.61 17.982 33.61 17.982s.81-2.795 1.371-4.86l-25.186-14.403s11.017-17.689 9.71-27.456c-1.307-9.766-6.49-10.281-6.49-10.281z"/>
            <path fill="#303D72" d="M121 133.747s25.153-4.187 36.102-2.223c10.949 1.964 7.598 13.625 6.75 18.572-.85 4.947-10.702 44.8-10.702 44.8s-2.953.488-5.414-.654l-2.458-1.142 6.89-46.43-15.13.096c-7.63.032-14.276-5.363-16.038-13.02z"/>
            <path fill="#27345E" d="M148 131c-12.342.039-29 2.785-29 2.785 1.804 7.783 8.615 13.262 16.428 13.215l3.079-.02L148 131zM302 160l-44 19.366V203h44z"/>
        </g>
    </g>
</svg>
