<svg xmlns="http://www.w3.org/2000/svg" xmlns:xlink="http://www.w3.org/1999/xlink" width="97" height="97" viewBox="0 0 97 97">
    <defs>
        <circle id="b" cx="28.8" cy="28.8" r="28.8"/>
        <filter id="a" width="221.5%" height="221.5%" x="-60.8%" y="-43.4%" filterUnits="objectBoundingBox">
            <feOffset dy="10" in="SourceAlpha" result="shadowOffsetOuter1"/>
            <feGaussianBlur in="shadowOffsetOuter1" result="shadowBlurOuter1" stdDeviation="10"/>
            <feColorMatrix in="shadowBlurOuter1" values="0 0 0 0 0 0 0 0 0 0 0 0 0 0 0 0 0 0 0.0933675699 0"/>
        </filter>
    </defs>
    <g fill="none" fill-rule="evenodd">
        <g transform="translate(19.7 9.7)">
            <use fill="#000" filter="url(#a)" xlink:href="#b"/>
            <use fill="#FFF" xlink:href="#b"/>
        </g>
        <path d="M31.7 21.7h34v34h-34z"/>
        <path fill="#FFC001" d="M37.367 27.367h22.666a2.833 2.833 0 0 1 2.834 2.833v17a2.833 2.833 0 0 1-2.834 2.833H37.367a2.833 2.833 0 0 1-2.834-2.833v-17a2.833 2.833 0 0 1 2.834-2.833z"/>
        <path fill="#000" d="M57.908 37.283H39.492a2.125 2.125 0 0 0-2.125 2.125v.709h6.496c.376 0 .736.149 1.002.415l1.417 1.416a3.42 3.42 0 0 0 4.836 0l1.417-1.416a1.417 1.417 0 0 1 1.002-.415h6.496v-.709a2.125 2.125 0 0 0-2.125-2.125z"/>
        <path fill="#25294A" d="M39.492 30.2a2.125 2.125 0 0 0-2.125 2.125v.708h22.666v-.708a2.125 2.125 0 0 0-2.125-2.125H39.492z"/>
    </g>
</svg>
