<svg xmlns="http://www.w3.org/2000/svg" width="179" height="59" viewBox="0 0 179 59">
    <g fill="none" fill-rule="nonzero">
        <path fill="#212731" d="M7.159 0h164.004c2.39 0 3.258.25 4.13.716a4.874 4.874 0 0 1 2.029 2.027c.468.875.716 1.742.716 4.132V52.12c0 2.39-.25 3.258-.716 4.131a4.874 4.874 0 0 1-2.027 2.028c-.875.468-1.742.716-4.132.716H7.159c-2.39 0-3.258-.248-4.131-.716A4.873 4.873 0 0 1 1 56.25c-.468-.875-.717-1.742-.717-4.132V6.876c0-2.391.25-3.258.717-4.133A4.874 4.874 0 0 1 3.027.716C3.9.248 4.768 0 7.159 0z"/>
        <path fill="#FFF" d="M40.115 28.056c-.036-3.85 3.228-5.723 3.377-5.81-1.848-2.631-4.713-2.991-5.72-3.02-2.407-.247-4.741 1.406-5.967 1.406-1.25 0-3.138-1.382-5.172-1.341-2.62.04-5.067 1.519-6.41 3.817-2.773 4.686-.706 11.572 1.95 15.359 1.329 1.857 2.881 3.927 4.914 3.854 1.988-.08 2.73-1.237 5.13-1.237 2.376 0 3.074 1.237 5.147 1.19 2.133-.032 3.476-1.863 4.759-3.735 1.535-2.124 2.15-4.22 2.176-4.327-.049-.017-4.143-1.544-4.184-6.156zM36.2 16.734c1.069-1.305 1.8-3.081 1.597-4.884-1.548.067-3.483 1.045-4.597 2.322-.986 1.125-1.867 2.97-1.64 4.704 1.74.127 3.524-.856 4.64-2.142zm30.746-4.086h2.728c.882 0 1.653.178 2.313.535a3.704 3.704 0 0 1 1.52 1.508c.352.648.53 1.388.53 2.223 0 .834-.178 1.575-.531 2.223a3.704 3.704 0 0 1-1.52 1.507c-.66.358-1.43.537-2.312.537h-2.728v-8.534zm2.705 7.257c.953 0 1.698-.264 2.235-.792.535-.529.803-1.261.803-2.2 0-.929-.268-1.66-.803-2.193-.537-.532-1.282-.798-2.235-.798h-1.37v5.983h1.37zm8.366 1.465c-.612 0-1.16-.14-1.645-.422a2.975 2.975 0 0 1-1.132-1.162 3.363 3.363 0 0 1-.405-1.645c0-.604.135-1.152.405-1.645.27-.492.648-.88 1.132-1.16a3.206 3.206 0 0 1 1.645-.424c.612 0 1.16.142 1.645.428.485.287.862.675 1.132 1.169a3.34 3.34 0 0 1 .405 1.632c0 .603-.135 1.152-.405 1.645a2.97 2.97 0 0 1-1.132 1.162 3.203 3.203 0 0 1-1.645.422zm0-1.203c.333 0 .644-.08.93-.244.285-.163.514-.397.685-.703.171-.306.256-.666.256-1.079 0-.414-.085-.771-.256-1.072a1.807 1.807 0 0 0-.685-.698 1.847 1.847 0 0 0-.93-.244c-.334 0-.643.081-.93.244a1.812 1.812 0 0 0-.685.698c-.171.301-.256.66-.256 1.072 0 .413.086.773.256 1.079.17.306.4.54.686.703.286.162.596.244.93.244zm3.588-5.065h1.417l1.228 4.35h.048l1.37-4.35h1.348l1.359 4.35h.046l1.228-4.35h1.395L89.1 21.181h-1.382l-1.395-4.363h-.036l-1.382 4.363h-1.359l-1.942-6.079zm10.285 0h1.251v.798h.06a2.01 2.01 0 0 1 .78-.709c.339-.184.718-.28 1.103-.279.738 0 1.3.216 1.686.648.386.434.579 1.024.579 1.77v3.85h-1.312v-3.67c0-.478-.117-.827-.35-1.049-.236-.223-.559-.334-.973-.334-.294 0-.556.081-.786.244-.233.166-.418.39-.537.65-.127.27-.19.56-.19.87v3.29H91.89v-6.079zm6.936-2.455h1.31v8.534h-1.31v-8.534zm5.637 8.723a3.2 3.2 0 0 1-1.644-.422 2.975 2.975 0 0 1-1.133-1.162 3.363 3.363 0 0 1-.405-1.645c0-.604.135-1.152.405-1.645.27-.492.648-.88 1.133-1.16a3.2 3.2 0 0 1 1.644-.424c.612 0 1.161.142 1.645.428.484.287.862.675 1.132 1.169a3.34 3.34 0 0 1 .405 1.632c0 .603-.135 1.152-.405 1.645a2.97 2.97 0 0 1-1.132 1.162 3.206 3.206 0 0 1-1.645.422zm0-1.203c.334 0 .644-.08.93-.244.286-.163.514-.397.686-.703.17-.306.255-.666.255-1.079 0-.414-.085-.771-.255-1.072a1.807 1.807 0 0 0-.686-.698 1.847 1.847 0 0 0-.93-.244 1.816 1.816 0 0 0-1.615.941c-.17.302-.256.66-.256 1.073 0 .413.085.773.256 1.079a1.809 1.809 0 0 0 1.615.947zm6.293 1.203c-.437 0-.826-.084-1.168-.255a1.917 1.917 0 0 1-.799-.727 2.013 2.013 0 0 1-.286-1.067c0-.628.237-1.125.71-1.49.473-.366 1.07-.548 1.793-.548.357 0 .68.034.966.101a3.5 3.5 0 0 1 .68.22v-.309c0-.373-.14-.677-.418-.911-.278-.234-.636-.352-1.073-.352-.31 0-.601.067-.876.202a1.718 1.718 0 0 0-.661.56l-.918-.702c.27-.374.631-.674 1.049-.871.447-.21.936-.317 1.43-.31.882 0 1.562.216 2.038.65.477.433.715 1.043.715 1.83v3.789h-1.287v-.727h-.06c-.19.275-.443.5-.738.656a2.245 2.245 0 0 1-1.097.261zm.227-1.084c.317 0 .603-.075.857-.226a1.65 1.65 0 0 0 .81-1.43c-.2-.111-.415-.195-.637-.25a2.97 2.97 0 0 0-.756-.096c-.493 0-.855.098-1.085.292a.945.945 0 0 0-.346.757c0 .278.108.507.322.685.215.18.493.268.835.268zm6.923 1.084a2.754 2.754 0 0 1-1.49-.416 2.952 2.952 0 0 1-1.054-1.15c-.258-.49-.387-1.043-.387-1.663 0-.62.129-1.174.387-1.662a2.952 2.952 0 0 1 1.055-1.15 2.754 2.754 0 0 1 1.49-.418c.429 0 .814.096 1.156.286.342.191.6.425.774.703h.06l-.06-.857v-2.396h1.311v8.534h-1.25v-.787h-.06c-.176.27-.433.5-.775.691a2.331 2.331 0 0 1-1.157.285zm.191-1.203c.318 0 .614-.084.888-.25.274-.167.495-.405.662-.716.166-.31.25-.663.25-1.06a2.17 2.17 0 0 0-.25-1.054 1.84 1.84 0 0 0-.662-.71 1.708 1.708 0 0 0-1.782 0 1.825 1.825 0 0 0-.666.71 2.16 2.16 0 0 0-.25 1.054c0 .397.082.75.25 1.06.166.311.388.55.666.716.28.166.576.25.894.25zm10.214 1.203a3.2 3.2 0 0 1-1.644-.422 2.975 2.975 0 0 1-1.132-1.162 3.363 3.363 0 0 1-.405-1.645c0-.604.135-1.152.405-1.645.27-.492.647-.88 1.132-1.16a3.2 3.2 0 0 1 1.644-.424c.612 0 1.16.142 1.644.428.486.287.863.675 1.133 1.169a3.34 3.34 0 0 1 .405 1.632c0 .603-.135 1.152-.405 1.645a2.97 2.97 0 0 1-1.132 1.162 3.2 3.2 0 0 1-1.645.422zm0-1.203c.333 0 .644-.08.93-.244.286-.163.514-.397.685-.703.17-.306.256-.666.256-1.079 0-.414-.085-.771-.256-1.072a1.807 1.807 0 0 0-.685-.698 1.847 1.847 0 0 0-.93-.244 1.85 1.85 0 0 0-.93.244 1.804 1.804 0 0 0-.684.698c-.171.301-.257.66-.257 1.072 0 .413.086.773.257 1.079.17.306.398.54.684.703.287.162.596.244.93.244zm4.266-5.065h1.252v.798h.06a2.01 2.01 0 0 1 .78-.709c.339-.184.718-.28 1.103-.279.738 0 1.3.216 1.686.648.386.434.579 1.024.579 1.77v3.85h-1.312v-3.67c0-.478-.117-.827-.35-1.049-.236-.223-.559-.334-.973-.334-.294 0-.556.081-.786.244-.233.166-.418.39-.537.65-.127.27-.19.56-.19.87v3.29h-1.31v-6.079h-.002zm12.217 6.174c-.27 0-.525-.044-.763-.131a1.674 1.674 0 0 1-.584-.346c-.342-.342-.513-.806-.513-1.395v-3.145h-1.06v-1.157h1.06v-1.716h1.312v1.716h1.477v1.157h-1.477v2.86c0 .326.063.556.19.69.12.16.326.24.62.24.135 0 .254-.019.358-.055.118-.043.23-.101.333-.172v1.275c-.262.119-.58.179-.953.179zm2.24-8.63h1.311v2.325l-.06.93h.06c.175-.287.435-.523.781-.71a2.309 2.309 0 0 1 1.115-.279c.738 0 1.302.216 1.692.648.39.434.584 1.024.584 1.77v3.85h-1.312v-3.67c0-.461-.12-.807-.363-1.037-.242-.23-.558-.346-.947-.346-.294 0-.558.084-.793.25-.234.167-.42.387-.554.662a1.955 1.955 0 0 0-.203.875v3.267h-1.31v-8.534zm9.75 8.724a3.101 3.101 0 0 1-1.603-.416 2.94 2.94 0 0 1-1.11-1.15 3.39 3.39 0 0 1-.399-1.651c0-.58.13-1.118.387-1.615.248-.484.62-.894 1.08-1.186a2.862 2.862 0 0 1 1.573-.44c.612 0 1.143.134 1.59.404.45.27.791.64 1.026 1.109.234.468.35.997.35 1.585 0 .111-.01.25-.035.417h-4.66c.048.564.249 1 .603 1.306.353.305.765.459 1.233.459a1.8 1.8 0 0 0 .972-.257c.273-.171.495-.403.661-.697l1.108.524a3.265 3.265 0 0 1-1.12 1.18c-.461.286-1.013.428-1.656.428zm1.56-3.944a1.515 1.515 0 0 0-.202-.637 1.45 1.45 0 0 0-.542-.531c-.243-.143-.538-.215-.888-.215-.422 0-.777.126-1.067.376-.29.25-.49.586-.602 1.008h3.301v-.001zM70.491 29.309h3.218l5.586 14.868h-3.094l-1.246-3.55h-5.69l-1.246 3.55h-3.094l5.566-14.868zm3.55 8.743l-1.307-3.738-.54-1.786h-.167l-.54 1.786-1.328 3.738h3.882zm6.066-4.465h2.554v1.287h.166c.29-.456.714-.84 1.267-1.152.554-.311 1.19-.468 1.91-.468.955 0 1.824.24 2.606.717.783.477 1.395 1.146 1.838 2.004.443.858.665 1.827.665 2.907 0 1.094-.222 2.066-.665 2.919a4.969 4.969 0 0 1-1.838 1.993 4.907 4.907 0 0 1-2.605.716c-.72 0-1.36-.153-1.922-.457-.56-.304-.979-.685-1.256-1.143h-.166l.166 1.496v4.257h-2.72V33.588zm5.42 8.41c.512 0 .99-.13 1.433-.395.443-.262.795-.63 1.06-1.1.262-.47.393-1.01.393-1.62 0-.609-.131-1.149-.394-1.62a2.816 2.816 0 0 0-1.06-1.09 2.815 2.815 0 0 0-1.432-.384c-.499 0-.97.128-1.413.385-.446.26-.812.636-1.058 1.09-.263.47-.395 1.01-.395 1.62 0 .609.132 1.148.395 1.62.262.47.616.837 1.059 1.1.426.258.914.395 1.412.395zm6.543-8.41h2.554v1.287h.167c.29-.456.713-.84 1.266-1.152.553-.311 1.19-.468 1.91-.468.956 0 1.824.24 2.607.717.782.477 1.395 1.146 1.838 2.004.443.858.664 1.827.664 2.907 0 1.094-.221 2.066-.664 2.919a4.975 4.975 0 0 1-1.838 1.993 4.912 4.912 0 0 1-2.606.716c-.72 0-1.36-.153-1.92-.457-.562-.304-.981-.685-1.257-1.143h-.167l.167 1.496v4.257H92.07V33.588zm5.42 8.41c.513 0 .99-.13 1.433-.395.442-.262.796-.63 1.059-1.1.263-.47.394-1.01.394-1.62 0-.609-.131-1.149-.394-1.62a2.816 2.816 0 0 0-1.06-1.09 2.815 2.815 0 0 0-1.432-.384c-.499 0-.97.128-1.412.385-.447.26-.813.636-1.06 1.09-.262.47-.394 1.01-.394 1.62 0 .609.132 1.148.394 1.62.264.47.617.837 1.06 1.1.426.258.914.395 1.413.395h-.001zm15.08 2.513c-1.301 0-2.45-.367-3.447-1.1-.997-.735-1.696-1.773-2.098-3.115l2.637-1.039c.208.79.561 1.42 1.06 1.89.498.47 1.121.706 1.869.706.623 0 1.156-.156 1.598-.467.444-.312.665-.745.665-1.298a1.692 1.692 0 0 0-.633-1.36c-.423-.354-1.174-.73-2.254-1.132l-.913-.332a6.31 6.31 0 0 1-2.45-1.527c-.679-.685-1.018-1.547-1.018-2.585 0-.774.2-1.48.603-2.118.4-.637.968-1.139 1.702-1.506.733-.366 1.564-.55 2.492-.55 1.343 0 2.402.315 3.177.945.776.63 1.309 1.367 1.6 2.212l-2.472 1.038a2.475 2.475 0 0 0-.8-1.153c-.38-.311-.868-.468-1.464-.468-.609 0-1.11.143-1.505.427-.394.283-.592.654-.592 1.11 0 .444.187.821.561 1.133.374.311.99.612 1.848.902l.934.313c1.288.443 2.274 1.028 2.96 1.755.685.726 1.028 1.677 1.028 2.854 0 .97-.25 1.79-.748 2.461a4.575 4.575 0 0 1-1.92 1.506 6.129 6.129 0 0 1-2.42.498zm10.613-.166a4.27 4.27 0 0 1-1.454-.239c-.442-.159-.802-.378-1.08-.654-.65-.623-.975-1.51-.975-2.659v-4.88h-1.849v-2.324h1.849v-2.99h2.72v2.99h2.595v2.326h-2.595v4.382c0 .54.118.927.353 1.163.194.22.526.332.997.332.263 0 .481-.035.654-.104.173-.07.398-.187.675-.354v2.659a5.095 5.095 0 0 1-1.89.353v-.001zm7.914.166c-1.094 0-2.07-.245-2.928-.738a5.236 5.236 0 0 1-2.004-2.014c-.477-.851-.717-1.809-.717-2.875 0-1.053.24-2.007.717-2.866a5.215 5.215 0 0 1 2.004-2.025c.859-.491 1.834-.738 2.928-.738 1.08 0 2.049.247 2.907.738a5.215 5.215 0 0 1 2.004 2.025c.477.858.716 1.814.716 2.866 0 1.065-.238 2.025-.716 2.875a5.236 5.236 0 0 1-2.004 2.014c-.858.493-1.827.738-2.907.738zm0-2.512c.526 0 1.01-.125 1.453-.375a2.741 2.741 0 0 0 1.06-1.08c.262-.47.394-1.024.394-1.66 0-.623-.132-1.17-.394-1.641a2.741 2.741 0 0 0-1.06-1.08 2.914 2.914 0 0 0-1.453-.373c-.526 0-1.011.124-1.454.373a2.813 2.813 0 0 0-1.069 1.08c-.27.47-.405 1.017-.405 1.64s.135 1.173.405 1.651c.27.477.626.842 1.07 1.09.442.25.926.375 1.453.375zm6.647-8.41h2.554v1.411h.166c.264-.498.671-.91 1.226-1.236a3.541 3.541 0 0 1 1.827-.487c.484 0 .927.076 1.329.228v2.72a8.817 8.817 0 0 0-.945-.3 3.462 3.462 0 0 0-.82-.094c-.804 0-1.44.29-1.91.872-.471.581-.707 1.315-.707 2.201v5.274h-2.72V33.588zm12.357 10.922c-1.052 0-2-.243-2.844-.727a5.204 5.204 0 0 1-1.983-2.004c-.477-.852-.717-1.81-.717-2.876 0-1.01.235-1.948.706-2.814a5.437 5.437 0 0 1 1.953-2.065c.83-.513 1.757-.769 2.782-.769 1.093 0 2.035.235 2.824.706a4.604 4.604 0 0 1 1.796 1.931c.409.817.612 1.723.612 2.72 0 .32-.02.623-.062.914h-7.953c.138.844.474 1.485 1.008 1.92.532.437 1.172.655 1.92.655.623 0 1.16-.135 1.61-.405.45-.27.806-.633 1.069-1.09l2.201 1.08c-1.08 1.883-2.72 2.824-4.922 2.824zm2.513-6.915a2.092 2.092 0 0 0-.364-.987 2.535 2.535 0 0 0-.893-.81c-.38-.214-.827-.32-1.339-.32-.65 0-1.208.189-1.671.57-.464.38-.8.896-1.008 1.548h5.275v-.001z"/>
    </g>
</svg>
