<svg xmlns="http://www.w3.org/2000/svg" width="47" height="47" viewBox="0 0 47 47">
    <g fill="none" fill-rule="evenodd">
        <circle cx="23.338" cy="23.338" r="23.338" fill="#FFBA02"/>
        <g transform="translate(9.481 9.487)">
            <path d="M0 0h28.817v28.817H0z"/>
            <rect width="12.007" height="14.408" x="2.401" y="2.401" fill="#232864" opacity=".3" rx="1.458"/>
            <path fill="#25294A" d="M3.86 7.204h21.098c.805 0 1.458.653 1.458 1.458v16.296c0 .805-.653 1.458-1.458 1.458H3.859a1.458 1.458 0 0 1-1.458-1.458V8.662c0-.805.653-1.458 1.458-1.458zm17.753 12.007a2.401 2.401 0 1 0 0-4.803 2.401 2.401 0 0 0 0 4.803z"/>
        </g>
    </g>
</svg>
