<svg xmlns="http://www.w3.org/2000/svg" xmlns:xlink="http://www.w3.org/1999/xlink" width="371" height="177" viewBox="0 0 371 177">
    <defs>
        <path id="a" d="M6 0h359a6 6 0 0 1 6 6v171H0V6a6 6 0 0 1 6-6z"/>
    </defs>
    <g fill="none" fill-rule="evenodd">
        <mask id="b" fill="#fff">
            <use xlink:href="#a"/>
        </mask>
        <use fill="#F9F6EC" xlink:href="#a"/>
        <g mask="url(#b)">
            <g transform="translate(50.437 26)">
                <path fill="#00B98F" d="M218.569 106.997s.367-11.468 0-28.366c-.368-16.898 18.443-32.289 33.994-24.593 0 0-9.978.124-17.076 6.32-7.098 6.195-11.129 9.83-11.706 20.438-.577 10.61-2.695 26.204-2.695 26.204l-2.517-.003z"/>
                <path fill="#00B98F" d="M212.186 106.966s-1.213-32.781-5.16-45.56C203.076 48.63 208.376 20 208.376 20s.19 22.114 3.4 32.997c3.211 10.884 8.703 24.942 7.656 37.693-1.048 12.75-3.759 16.31-3.759 16.31l-3.488-.034z"/>
                <path fill="#068E6A" d="M214.327 63.699L206.563 61c.036.125.068.25.103.371 3.749 12.788 4.898 45.595 4.898 45.595l3.306.034s2.567-3.569 3.569-16.323c.693-8.858-1.615-18.353-4.112-26.978z"/>
                <path fill="#00C99C" d="M212.057 107s5.276-16.486-3.918-42.742C198.946 38.002 187.563 32 187.563 32s10.247 22.13 14.535 39.422c4.288 17.291 4.34 35.568 4.34 35.568l5.619.01z"/>
                <path fill="#068E6A" d="M225.21 63c-3.562 4.577-5.765 10.32-5.642 16.253.34 16.526 0 27.747 0 27.747h2.371s1.998-15.255 2.542-25.632c.392-7.457 2.462-11.393 6.082-15.265L225.21 63z"/>
                <path fill="#00C99C" d="M216.071 107s2.745-15.758-.284-38.061C212.757 46.635 241.563 27 241.563 27S226.448 44.687 223.7 59.03c-2.748 14.343-.559 32.083-2.292 40.993-1.066 5.488-1.157 6.977-1.157 6.977h-4.18z"/>
                <path fill="#00C99C" d="M221.088 106.993s1.561-9.853 1.367-24.456c-.194-14.603 9.333-26.835 0-48.464-9.333-21.63-15.892-21.059-15.892-21.059s11.047-.946 18.798 12.647c7.752 13.593 9.365 31.078 4.263 47.863S224.83 107 224.83 107l-3.743-.007z"/>
                <path fill="#00B98F" d="M213.155 107s3.902-13.118-1.284-34.606L203.563 70c.097.4.193.8.283 1.197 4.014 17.409 4.062 35.79 4.062 35.79l5.247.013z"/>
                <path fill="#00B98F" d="M215.087 76.332c1.569 18.31-.524 30.668-.524 30.668h4.06s.092-1.487 1.128-6.968c1.089-5.757.582-15.2.812-25.032l-5.476 1.332zM222.063 83c.105 14.382-1.5 24-1.5 24h4.05c.023-7.125.675-14.237 1.95-21.263l-4.5-2.737z"/>
                <path fill="#FF9398" d="M205.738 106c-4.94 5.773-8.175 15.428-8.175 26.342 0 9.916 2.67 18.78 6.861 24.658h24.279c4.191-5.878 6.86-14.742 6.86-24.658 0-10.914-3.233-20.555-8.174-26.342h-21.65z"/>
                <path fill="#F4828B" d="M220.563 106h-14.69c-5.022 5.773-8.31 15.428-8.31 26.342 0 9.916 2.714 18.78 6.975 24.658h16.025v-51z"/>
                <path fill="#19192B" d="M36.028 123h3.694c3.777 0 6.84 3.147 6.841 7.031v17.941c-.003 3.881-3.063 7.026-6.838 7.028h-4.162v-2.37h4.159c2.5.004 4.53-2.074 4.537-4.644v-17.941c0-2.573-2.029-4.658-4.53-4.658h-3.701V123z"/>
                <rect width="8" height="8" x="22.563" y="118" fill="#19192B" rx="4"/>
                <rect width="8" height="8" x="21.563" y="118" fill="#E57A87" rx="4"/>
                <rect width="24" height="37" x="16.563" y="120" fill="#303D72" rx="12"/>
                <rect width="24" height="37" x="12.563" y="120" fill="#FF9398" rx="12"/>
                <path fill="#F4828B" d="M12.563 139v14.67c0 2.392 1.77 4.33 3.953 4.33h16.095c2.183 0 3.952-1.938 3.952-4.33v-9.922l-24-4.748z"/>
                <path fill="#19192B" d="M17.462 155h11.203c2.153 0 3.898-1.887 3.898-4.214V132H17.462c-2.153 0-3.899 1.887-3.899 4.214v14.572c0 2.327 1.746 4.214 3.899 4.214z"/>
                <path fill="#F9C200" d="M16.462 155h11.203c2.153 0 3.898-1.887 3.898-4.214V132h-19v18.786c0 2.327 1.746 4.214 3.899 4.214z"/>
                <rect width="19" height="8" x="13.563" y="123" fill="#19192B" rx="4"/>
                <rect width="19" height="8" x="12.563" y="123" fill="#F9C200" rx="4"/>
                <path fill="#EDB607" d="M16.462 155h11.203c2.153 0 3.898-1.831 3.898-4.09v-9.314l-19-3.596v12.91c0 2.259 1.746 4.09 3.899 4.09z"/>
                <path fill="#303D72" d="M196.065 116c-3.585-.011-6.489-2.952-6.5-6.584V6.734a6.603 6.603 0 0 1 3.206-5.827 6.429 6.429 0 0 1 6.585 0 6.603 6.603 0 0 1 3.206 5.827v102.682c-.01 3.631-2.912 6.573-6.497 6.584z"/>
                <rect width="162" height="116" x="40.563" fill="#F0F1F4" rx="21.05"/>
                <path fill="#0CBFD1" d="M78.346 85l3.273 22.743 7.944 21.992L85.156 132l-6.797-15.272-1.796-29.273z"/>
                <path fill="#60D6E6" d="M47.563 6.5a1.5 1.5 0 1 1-3 0 1.5 1.5 0 0 1 3 0z"/>
                <path fill="#19192B" d="M77.757 123.035s17.792-.596 19.76 3.149c1.967 3.745.684 7.574 0 10.128-.685 2.553-4.021 15.234-4.021 15.234s-3.764 1.021-6.073 0l2.467-18.244s-12.123 4.116-20.725 3.01l-8.602-1.107 7.309-11.745 9.885-.425z"/>
                <path fill="#303D72" d="M72.08 136s1.41-2.846 5.449-5.972c4.039-3.126 5.034-7.028 5.034-7.028h-13l2.516 13z"/>
                <path fill="#303D72" d="M69.923 122.09s6.34 31.531-5.908 34.29c-12.248 2.759-31.43-4.585-31.43-4.585s-.262-3.927 1.047-5.463l25.648 1.557s-4.467-19.697-4.453-25.904c.014-6.208.963-3.309.963-3.309l14.133 3.414z"/>
                <path fill="#60D6E6" d="M53.563 6.5a1.5 1.5 0 1 1-3 0 1.5 1.5 0 0 1 3 0zM59.563 6.5a1.5 1.5 0 1 1-3 0 1.5 1.5 0 0 1 3 0z"/>
                <path fill="#27345E" d="M55.8 120c-.134.5-.233 1.536-.237 3.508 0 6.108 4.379 25.492 4.379 25.492l.789-15.12 5.832-9.949L55.8 120z"/>
                <path fill="#FFB0B2" d="M109.35 100a44.16 44.16 0 0 1-24.158-15.371 43.67 43.67 0 0 1-9.629-27.533c0-24.316 19.74-44.096 44-44.096v1.01c-23.732.028-42.963 19.302-42.991 43.086A42.693 42.693 0 0 0 85.982 84a43.179 43.179 0 0 0 23.604 15.018l-.235.983z"/>
                <path fill="#60D6E6" d="M120.563 102v-1.013c21.606-.064 39.811-16.22 42.54-37.75 2.729-21.531-10.866-41.754-31.766-47.255l.252-.982c19.422 5.042 32.986 22.648 32.974 42.8 0 24.372-19.738 44.2-44 44.2zM70.253 81.078l8.068 3.407 2.242 38.61s-13.225 9.082-26-.456l.283-35.637c.017-2.083 1.385-3.906 3.362-4.48L63.442 81l6.81.078z"/>
                <path fill="#50CAD3" d="M60.223 93.214L54.82 89l-.257 33.156a21.341 21.341 0 0 0 8 3.844l-2.34-32.786z"/>
                <path fill="#FBAD83" d="M62.563 73v8.869s1.507 1.269 4.155 1.119c2.45-.144 2.838-1.024 2.838-1.024l1.007-4.591-8-4.373z"/>
                <path fill="#E68D5C" d="M70.699 80.935c-1.358.316-2.928-.57-4.098-1.547C64.44 77.581 63.563 74 63.563 74l7.15 2.273.85.492-.864 4.17z"/>
                <path fill="#1A2249" d="M75.347 61.758s1.303.445 1.212 3.312a30.235 30.235 0 0 1-.597 3.93l-3.399-8 2.784.758z"/>
                <path fill="#FBAD83" d="M75.492 75.236c-2.405 5.086-8.368 2.075-10.922-.48-2.554-2.557-2.203-12.337-1.477-14.171.727-1.834 6.609-3.356 9.724-2.16 3.114 1.197 5.077 11.737 2.675 16.811z"/>
                <path fill="#1A2249" d="M66.421 68s.685 5.496 2.225 5.934c1.328.378 3.173-1.46 5.566-1.559 1.328-.053 1.81.07 2.351.425a11.138 11.138 0 0 1-.951 3.496c-2.437 4.976-8.479 2.03-11.067-.471-1.256-1.214-1.817-4.08-1.982-6.92L66.421 68z"/>
                <path fill="#1A2249" d="M65.34 68.932s.733.072 1.031-.353c.3-.425-.56-2.818.306-5.358.621-1.81 3.434-2.86 5.734-2.422 2.3.438 2.88.637 3.115 0 .235-.638-.688-2.18-1.487-2.789-.799-.608-4.539-1.677-7.66-.438-3.123 1.24-3.744 2.066-4.442 4.034-.699 1.968-.249 6.901 0 7.218.248.318 3.404.108 3.404.108z"/>
                <path fill="#FBAD83" d="M62.563 69.45c0 1.35 1.8 2.55 2.906 2.55 1.105 0 1.094-1.2 1.094-2.55 0-1.351-.894-2.45-2-2.45-1.105 0-2 1.099-2 2.45z"/>
                <path fill="#1A2249" d="M76.563 73s0 5.876-.706 6.936c-.706 1.06-3.033 1.297-4.088.85-1.054-.448-2.758-2.036-3.186-3.388-.427-1.351 6.23-3.273 6.23-3.273L76.563 73z"/>
                <path fill="#E68D5C" d="M62.575 69.192c-.098.778.439 1.687.817 1.8.379.112-.44-.932-.34-1.706.1-.774.779-1.147.395-1.282-.436-.053-.82.47-.872 1.188z"/>
                <path fill="#FFF" d="M76.563 74.222s-2.999.074-3.501-.074L72.563 74c.024.823.577 1.553 1.404 1.851.434.187.932.198 1.375.032.444-.166.793-.495.966-.91.184-.5.255-.75.255-.75z"/>
                <path fill="#1A2249" d="M77.196 66.987a.327.327 0 0 1-.103 0 3.355 3.355 0 0 0-2.07 0c-.185.053-.375-.062-.439-.265-.063-.203.022-.427.196-.516a3.941 3.941 0 0 1 2.516 0c.195.063.308.29.254.511-.055.166-.197.274-.354.27z"/>
                <path fill="#1A2249" d="M70.946 68a.35.35 0 0 1-.251-.12.56.56 0 0 1-.039-.668c.054-.077 1.343-1.863 3.614-.956.14.044.25.18.283.353a.549.549 0 0 1-.123.472.331.331 0 0 1-.396.083c-1.776-.697-2.755.63-2.797.688a.354.354 0 0 1-.29.148z"/>
                <path fill="#FF9398" d="M107.313 95.604l1.25 5.396-4.265-3.9-9.735-19.6L97.58 76z"/>
                <path fill="#FBAD83" d="M101.633 97.844s3.494-1.486 5.63-.495c2.134.99 2.844.714 3.2.078.356-.635-.239-2.493-1.72-3.979-1.48-1.486-5.342 0-5.342 0l-.69-1.448c-.49.333-.867.818-1.078 1.387a4.553 4.553 0 0 1-1.07 1.615l1.07 2.842z"/>
                <path fill="#60D6E6" d="M55.147 84.271a10.485 10.485 0 0 0 .31 7.685C57.28 95.902 75.11 106 75.11 106l27.454-8.03s-.914-3.399-1.426-4.875L76.56 97.82S62.728 85.04 58.236 83.195c-1.915-.79-3.09 1.076-3.09 1.076z"/>
                <path fill="#E68D5C" d="M189.563 116.4L188.08 154l-4.864-.753L180.563 115z"/>
                <path fill="#FBAD82" d="M193.55 116l4.013 37h-4.858l-8.142-37z"/>
                <path fill="#F7A379" d="M193.4 116l1.163 11-7.881-.64-2.119-10.36z"/>
                <path fill="#F89900" d="M194.32 46s4.208.579 9.183 20.3c1.066 4.227-12.375 24.7-12.375 24.7l-.565-4.805 7.582-19.343-5.422-9.812L194.32 46z"/>
                <path fill="#303D72" d="M178.492 76l-5.929 41.981s13.623 3.492 23.312 1.291l9.688-2.2-7.23-40.653-19.84-.419z"/>
                <path fill="#27345E" d="M195.44 119l9.123-2.18-6.881-40.73-4.119-.09z"/>
                <path fill="#F9C200" d="M184.547 44l-8.984 2.976.41 9.157 1.075 23.164c.04.865 7.19 2.717 10.902 2.703 3.576-.017 9.552-1.152 10.078-1.617a1.54 1.54 0 0 0 .535-1.117l-1.43-30.318c-.098-2.064-1.63-3.762-3.644-4.038l-2.875-.39-6.067-.52z"/>
                <path fill="#1A2249" fill-rule="nonzero" d="M178.563 36c-1.102 0-2-1.266-2-2.821V33h4.001v.179c0 1.559-.898 2.821-2 2.821zm-1.686-2.653c.06 1.284.798 2.295 1.693 2.295.894 0 1.635-1.015 1.695-2.295h-3.388z"/>
                <path fill="#FBAD83" d="M191.563 36l-1.181 9.19a5.457 5.457 0 0 1-3.996.691c-1.79-.325-2.486-1.223-2.486-1.223l-.337-5.019 8-3.639z"/>
                <path fill="#E68D5C" d="M191.361 37.548c-.089.153-.19.299-.3.438-1.528 1.853-4.47 4.5-7.27 5.014l-.228-3.384 8-3.616-.202 1.548z"/>
                <path fill="#FBAD83" d="M178.701 38.54c2.57 5.157 9.043 1.006 11.772-1.59 2.73-2.597 2.262-11.435 1.507-13.318-.755-1.883-7.052-3.41-10.4-2.2-3.346 1.209-5.432 11.953-2.879 17.109z"/>
                <path fill="#1A2249" d="M182.131 42.065a17.784 17.784 0 0 0 8.503.712 16.883 16.883 0 0 0 4.794-1.546c1.475-6.263 1.91-13.234-1.158-18.294-2.133-3.52-7.769-4.707-11.409-3.45-5.298 1.829-5.218 8.273-5.298 8.843a11.645 11.645 0 0 1 3.72-.027l.848 13.762z"/>
                <path fill="#FBAD83" d="M183.563 33.959c0 1.08-1.348 2.041-2.177 2.041-.83 0-.823-.96-.823-2.041 0-1.08.675-1.959 1.5-1.959.826 0 1.5.879 1.5 1.959z"/>
                <circle cx="182.063" cy="36.5" r="1.5" fill="#FFF"/>
                <path fill="#1A2249" d="M176.563 32h12v1h-12z"/>
                <path fill="#EDB607" d="M175.563 56l1.088 23.32c.034.792 6.006 2.402 9.912 2.68l-11-26z"/>
                <path fill="#303D72" d="M35.563 148.732L27.785 147l-3.222 11h4.226c1.165-.855 1.52-2.368.846-3.606l.238-1.15 4.854-.314.836-4.198z"/>
                <path fill="#FBAD83" d="M152.479 18s1.165-1.47 1.08-2.36c-.085-.89-.682-1.603-1.421-1.64-.74-.036-1.575 1.14-1.575 1.14L152.48 18z"/>
                <path fill="#60D6E6" d="M135.943 17l-5.38-.973 5.237-2.151L157.42 13l.143 3.124z"/>
                <path fill="#FBAD83" d="M151.563 18.594s-1.102-4.315-2.3-6.288c-1.198-1.973-3.947-1.215-4.799-.88-.851.336-.9 1.044-.9 1.044s1.944.718 2.563 2.185c.62 1.466.66 1.93.7 2.392.04.463 1.997 2.953 1.997 2.953l2.74-1.406z"/>
                <path fill="#F9C200" d="M175.635 47.845l-15.55-8.094L152.884 19s-3.124-.062-4.32 2.013c0 0 5.789 20.867 7.035 23.858 1.246 2.991 19.129 11.437 20.448 12.04 1.32.603 2.466-1.988 2.516-3.625.05-1.637-2.928-5.441-2.928-5.441z"/>
                <path fill="#19192B" d="M231.563 129l-4.64 29h-1.36l1.777-29z"/>
                <path fill="#19192B" d="M229.563 129l-3.646 29h-1.354l1.772-29zM209.563 129l-4.64 29h-1.36l1.78-29z"/>
                <path fill="#A9C2DC" d="M207.563 129l-3.645 29h-1.355l1.77-29z"/>
                <path fill="#19192B" d="M229.563 129l4.64 29h1.36l-1.78-29z"/>
                <path fill="#60D6E6" d="M252.057 98h-19.494c-4.197.002-7.598 3.376-7.6 7.538.001 2-.799 3.917-2.224 5.331a7.627 7.627 0 0 1-5.375 2.207h-7.201c-4.197 0-7.6 3.375-7.6 7.538V129h56v-24.526c0-3.568-2.91-6.463-6.506-6.474z"/>
                <path fill="#A9C2DC" d="M230.563 129l3.646 29h1.354l-1.768-29z"/>
                <path fill="#19192B" d="M250.563 129l4.64 29h1.36l-1.78-29z"/>
                <path fill="#A9C2DC" d="M252.563 129l3.647 29h1.353l-1.77-29z"/>
                <path fill="#0CBFD1" d="M258.563 129v-19l-56 13.81V129z"/>
            </g>
        </g>
    </g>
</svg>
