<svg xmlns="http://www.w3.org/2000/svg" xmlns:xlink="http://www.w3.org/1999/xlink" width="21" height="21" viewBox="0 0 21 21">
    <defs>
        <path id="a" d="M18.042 4H9.958A5.965 5.965 0 0 0 4 9.958v8.084A5.965 5.965 0 0 0 9.958 24h8.084A5.965 5.965 0 0 0 24 18.042V9.958A5.965 5.965 0 0 0 18.042 4zm3.946 14.042a3.946 3.946 0 0 1-3.946 3.946H9.958a3.946 3.946 0 0 1-3.946-3.946V9.958a3.946 3.946 0 0 1 3.946-3.946h8.084a3.946 3.946 0 0 1 3.946 3.946v8.084zM14 8.827A5.179 5.179 0 0 0 8.827 14 5.179 5.179 0 0 0 14 19.173 5.179 5.179 0 0 0 19.173 14 5.179 5.179 0 0 0 14 8.827zm0 8.334a3.16 3.16 0 1 1 0-6.322 3.16 3.16 0 0 1 0 6.322zm5.183-7.055a1.24 1.24 0 1 0 0-2.48 1.24 1.24 0 0 0 0 2.48z"/>
    </defs>
    <g fill="none" fill-rule="evenodd" transform="translate(-3.821 -3.541)">
        <mask id="b" fill="#fff">
            <use xlink:href="#a"/>
        </mask>
        <use fill="#FFF" fill-rule="nonzero" xlink:href="#a"/>
        <g fill="#CCC" mask="url(#b)">
            <path d="M0 0h28v28H0z"/>
        </g>
    </g>
</svg>
