<svg xmlns="http://www.w3.org/2000/svg" xmlns:xlink="http://www.w3.org/1999/xlink" width="371" height="177" viewBox="0 0 371 177">
    <defs>
        <path id="a" d="M6 0h359a6 6 0 0 1 6 6v171H0V6a6 6 0 0 1 6-6z"/>
    </defs>
    <g fill="none" fill-rule="evenodd">
        <mask id="b" fill="#fff">
            <use xlink:href="#a"/>
        </mask>
        <use fill="#F9F6EC" xlink:href="#a"/>
        <g mask="url(#b)">
            <path fill="#222747" d="M168 156v37h-44.677L122 159.29z"/>
            <path fill="#303D72" d="M116.3 70l-7.956 42.429-27.453 1.952s-1.392 3.624-.696 6.579l.696 2.955s30.342.53 35.27-1.052c4.93-1.58 4.907-40.052 4.819-44.28-.088-4.227-4.68-8.583-4.68-8.583zM160.748 68l20.964 17.685 38.392-7.08s2.519 5.077 2.707 6.965l.189 1.892s-37.864 11.772-42.78 11.534C175.301 98.76 157 83.571 157 83.571L160.748 68z"/>
            <path fill="#303D72" d="M132.419 63L117 69.607l1.002 91.691s29.627 5.86 41.312 2.835L171 161.097l-8.309-91.236a3.552 3.552 0 0 0-2.656-3.112l-13.764-3.567L132.419 63z"/>
            <path fill="#26335E" d="M116 85l.84 77.291s23.67 4.66 37.16 3.534L116 85z"/>
            <path fill="#E68D5C" d="M188.927 103.921l-2.006 21.437L170 156.368l5.36 2.632 22.856-31.503L199 103z"/>
            <path fill="#303D72" d="M232.166 173.438s.834 7.773.834 11.429c0 3.655-1.604 9.133-1.604 9.133H204l1.986-23 26.18 2.438z"/>
            <path fill="#0CBFD1" d="M187 103.41s2.334-14.68 6.721-18.777c3.147-2.947 6.216-2.864 8.359-2.37 2.143.494 4.12 7.956 2.034 18.02-1.435 6.977-1.622 7.71-1.622 7.71s-11.292.384-15.492-4.584z"/>
            <path fill="#60D6E6" d="M218.012 78L236 85.995 232.696 174H189l3.937-86.372a4.935 4.935 0 0 1 2.496-4.06l9.527-5.39L218.012 78z"/>
            <path fill="#E2E2E2" d="M125.282 124l3.792 37.568 40.578 17.207s3.033 3.565 0 8.225L124 173.73l1.282-49.73z"/>
            <path fill="#F0F1F4" d="M98.681 115.81l-13.721 5.297a6.17 6.17 0 0 0-3.957 5.952L83.12 194H126l-1.046-68.712a7.703 7.703 0 0 0-5.21-7.18l-9.11-3.108-11.953.81z"/>
            <path fill="#303D72" d="M272.81 75h1v120h-1zM278.81 87h1v105h-1zM276.81 109h1v87h-1zM266.81 128h1v68h-1zM281.81 147h1v48h-1z"/>
            <path fill="#303D72" d="M264.79 99.751c6.462-3.29 13.744-1.81 16.313 3.309 2.57 5.118-.57 11.915-6.997 15.22-6.427 3.305-20.106 15.597-22.675 10.497-2.57-5.099 6.921-25.736 13.36-29.026zM257.425 164.592c5.604-5.958 15.228-6.144 21.499-.407 6.27 5.737 6.803 15.208 1.199 21.174-5.604 5.965-14.138 25.325-20.405 19.592-6.267-5.734-7.897-34.397-2.293-40.36z"/>
            <path fill="#00C99C" d="M252.186 129.368c7.559-5.015 16.956-4.354 20.986 1.479 4.03 5.833 1.176 14.639-6.379 19.642-7.554 5.004-22.732 22.146-26.766 16.317-4.034-5.83 4.605-32.423 12.16-37.438z"/>
            <path fill="#00B98F" d="M251.923 129.399c-6.969 4.77-14.876 28.847-12.488 36.601 6.432-19.658 10.61-25.473 17.272-32.616a32.496 32.496 0 0 1 9.293-6.93c-4.277-1.12-9.518-.175-14.077 2.945z"/>
            <path fill="#00C99C" d="M294.96 105.024c-8.534-2.816-17.243.378-19.448 7.123-2.205 6.746 2.918 14.505 11.453 17.317 8.534 2.813 27.617 15.311 29.823 8.562 2.205-6.748-13.297-30.19-21.828-33.002z"/>
            <path fill="#00B98F" d="M295.62 105.031c8.153 2.677 22.585 23.804 22.378 31.969-11.748-17.245-17.456-21.712-25.966-26.771A33.112 33.112 0 0 0 281 106.102c3.9-2.268 9.287-2.819 14.62-1.07z"/>
            <path fill="#E2E2E2" d="M81 142.52L82.64 194H126l-.41-12.578-35.884-19.521L92.955 136z"/>
            <path fill="#00C99C" d="M285.283 79.577c-5.568 2.27-8.584 7.554-6.742 11.803 1.842 4.249 7.848 5.861 13.412 3.59 5.564-2.27 20.735-4.296 18.893-8.549-1.842-4.252-19.999-9.11-25.563-6.844z"/>
            <path fill="#303D72" d="M273.327 66.4c3.404 2.4 4.67 6.58 2.826 9.334-1.844 2.753-6.092 3.037-9.492.636-3.4-2.4-13.266-6.005-11.437-8.755 1.83-2.75 14.703-3.612 18.103-1.216z"/>
            <path fill="#00B98F" d="M284.86 79.557c5.25-2.06 21.68 1.975 25.14 5.879-13.384-3.304-18.207-3.075-24.673-1.986A23.126 23.126 0 0 0 278 86c.96-2.643 3.426-5.093 6.86-6.443z"/>
            <path fill="#00C99C" d="M253.77 174.647c7.936-4.502 17.26-3.123 20.836 3.085 3.574 6.209.038 14.89-7.894 19.391-7.932 4.502-24.418 20.69-28 14.474-3.583-6.216 7.126-32.444 15.058-36.95z"/>
            <path fill="#00B98F" d="M253.59 174.625c-7.385 4.205-17.184 27.512-15.37 35.375 7.97-19.018 12.63-24.474 19.886-31.053a32.959 32.959 0 0 1 9.894-6.182c-4.228-1.424-9.579-.891-14.41 1.86z"/>
            <path fill="#00C99C" d="M302.514 150.15c-9.858-6.872-22.932-6.872-29.203.031-6.27 6.904-3.377 18.068 6.496 24.948 9.873 6.88 28.816 29.473 35.086 22.577 6.27-6.895-2.522-40.675-12.38-47.555z"/>
            <path fill="#00B98F" d="M302.518 150.128c9.275 6.465 17.604 36.612 13.33 45.872-6.753-24.611-11.983-32.095-20.55-41.415A44.047 44.047 0 0 0 283 145.28c6.168-.985 13.436.63 19.518 4.848z"/>
            <path fill="#F0F1F4" d="M81.716 123s-14.312 35.593-11.3 46.661C73.43 180.73 117.25 187 117.25 187s1.276-3.228 1.506-5.697l.245-2.47-38.286-13.3s12.309-25.016 12.983-33.045c.674-8.03-11.98-9.488-11.98-9.488z"/>
            <path fill="#A9C2DC" d="M145 187h59.631a2.362 2.362 0 0 0 2.369-2.356v-41.288a2.362 2.362 0 0 0-2.369-2.356H145v46z"/>
            <path fill="#19192B" d="M145 187h.937c1.138-.002 2.061-.943 2.063-2.105v-41.79c-.002-1.162-.925-2.103-2.063-2.105H145v46z"/>
            <path fill="#FFF" d="M173 164c0 2.773 1.568 5 3.502 5 1.934 0 3.498-2.239 3.498-5s-1.568-5-3.498-5c-1.93 0-3.502 2.239-3.502 5z"/>
            <path fill="#0CBFD1" d="M232.15 174L235 98.694 227.577 97 210 174z"/>
            <path fill="#FFF" d="M99 115.859s3.208 6.24 8.126 6.14c4.919-.1 3.754-6.999 3.754-6.999l-11.88.859z"/>
            <path fill="#F9C200" d="M120.232 85s2.53 20.02 1.538 23.934c-.992 3.914-11.146 3.117-16.184 2.72-5.039-.399-7.721.266-9.927-.936-2.206-1.202 1.837-13.725 1.837-13.725L120.232 85z"/>
            <path fill="#FFF" d="M114.06 112.998c-3.02.07-5.609-2.166-6.008-5.19-.399-3.025 1.52-5.868 4.453-6.599a.185.185 0 0 1 .226.131.19.19 0 0 1-.13.232c-2.82.778-4.56 3.632-3.979 6.526.581 2.893 3.285 4.836 6.183 4.443 2.897-.394 4.997-2.99 4.8-5.936-.196-2.946-2.621-5.233-5.545-5.231a.186.186 0 0 1-.185-.187.19.19 0 0 1 .185-.187c3.28 0 5.94 2.686 5.94 6 0 3.312-2.66 5.998-5.94 5.998z"/>
            <path fill="#FBAD83" d="M112 106.614l-.955 8.437s-1.137 1.947-7.08 1.947a10.788 10.788 0 0 1-4.965-1.11V101l13 5.614z"/>
            <path fill="#E68D5C" d="M112 107.138l-.663 5.83c-1.1.085-2.208 0-3.283-.25-1.42-.333-5.473-4.603-8.054-10.718l12 5.138z"/>
            <path fill="#FBAD83" d="M119.514 81.101s1.401 13.733-.555 20.382c-1.957 6.65-8.042 9.45-13.437 8.244-1.999-.453-9.236-8.486-10.151-18.408-.915-9.923-.042-12.913 1.593-15.011 1.635-2.098 16.492-4.71 19.192-2.415 2.7 2.294 3.358 7.208 3.358 7.208z"/>
            <path fill="#F9C200" d="M114 80.25s4.672 6.553 5.85 6.744c1.18.191 1.31-4.162 1.018-8.078-.475-6.186-4.805-8.916-4.805-8.916L114 80.25z"/>
            <path fill="#F9C200" d="M119 75.267s-1.33 7.484-4.12 11.96c-2.79 4.476-13.267 2.844-15.14 2.977-1.872.134.266 15.186 1.596 20.205 1.33 5.018-8.24 3.524-11.297 2.847-3.056-.676-4.652-27.115-.663-37.355 3.99-10.24 20.462-9.842 24.98-7.598 2.648 1.317 4.416 3.966 4.644 6.964z"/>
            <path fill="#FBAD83" d="M95 98.427c0 1.89 2.701 3.573 4.356 3.573 1.656 0 1.644-1.682 1.644-3.573S99.655 95 98 95s-3 1.52-3 3.427z"/>
            <path fill="#E68D5C" d="M96.045 97.244c.213-.833 1.86-1.355 2.753-1.224s-1.452.607-1.665 1.437c-.212.83 1.04 1.66.148 1.53-.893-.132-1.448-.913-1.236-1.743z"/>
            <path fill="#F76A00" d="M107.405 94a.405.405 0 0 1-.389-.281.384.384 0 0 1 .17-.439l3.556-2.217a.42.42 0 0 1 .32-.051l2.634.661c.218.055.348.27.29.48a.41.41 0 0 1-.497.279l-2.459-.618-3.405 2.123a.418.418 0 0 1-.22.063zM120.616 93a.361.361 0 0 1-.198-.06l-1.757-1.16-2.2.59a.363.363 0 0 1-.355-.098.381.381 0 0 1-.093-.363.372.372 0 0 1 .261-.265l2.376-.632a.36.36 0 0 1 .29.048l1.892 1.251c.137.09.2.262.153.422a.368.368 0 0 1-.354.267h-.015z"/>
            <path fill="#FFF" d="M99.057 112.981c-3.018.062-5.6-2.169-6.003-5.184-.403-3.015 1.503-5.854 4.43-6.599a.194.194 0 0 1 .1.374c-2.827.778-4.57 3.632-3.988 6.526.583 2.895 3.293 4.838 6.197 4.444 2.904-.393 5.008-2.99 4.811-5.936-.197-2.946-2.627-5.234-5.558-5.232a.186.186 0 0 1-.185-.187c0-.103.083-.187.185-.187 3.288 0 5.954 2.686 5.954 6s-2.666 6-5.954 6l.011-.019z"/>
            <path fill="#FBAD83" d="M218 62v16.859s-2.818 2.405-7.773 2.117c-4.589-.265-5.315-1.921-5.315-1.921L203 70.31l14.985-8.295"/>
            <path fill="#E68D5C" d="M204.463 76.985a18.616 18.616 0 0 0 4.818-3.034c2.19-1.774 3.833-4.193 4.719-6.951l-9.548 1.913-1.452.85L204.496 77"/>
            <path fill="#1A2249" d="M192 51.811h8v1h-8z"/>
            <path fill="#7A4029" d="M194.486 39.834S193 43.46 193 46.632c0 2.555 1.045 7.368 1.045 7.368L200 39l-5.514.834z"/>
            <path fill="#FBAD83" d="M194.979 68.763c4.47 9.631 15.54 3.94 20.285-.917 4.745-4.857 4.097-23.42 2.775-26.935-1.323-3.516-12.292-6.367-18.058-4.101s-9.465 22.319-5.002 31.953"/>
            <path fill="#D7C5BE" d="M193 62a21.33 21.33 0 0 0 1.859 6.774C196.749 72.59 199.749 74 203 74c-3.246 0-6.25-1.404-8.137-5.226A21.33 21.33 0 0 1 193.004 62"/>
            <path fill="#D48C68" d="M219 54h-5.068s-3.355 8.645-6.234 9.476c-.231.062-.47.093-.71.093-2.4 0-5.592-2.864-9.622-3.03-.377 0-.71-.026-1.015-.026-1.725 0-2.498.252-3.351.82a21.083 21.083 0 0 0 1.77 6.586c1.796 3.709 4.656 5.081 7.747 5.081 4.683 0 9.906-3.13 12.8-5.971 2.325-2.281 3.37-7.677 3.675-13.029"/>
            <path fill="#7A4029" d="M217.466 54.808a6.16 6.16 0 0 1-4.22-2.239 6.008 6.008 0 0 1-1.305-4.551c.259-2.052.871-2.71.33-4.652-1.057-3.878-5.783-3.514-8.956-2.063-3.173 1.45-6.64 1.443-9.372-.598-1.301-.97-2.937-3.671-1.168-6.493 1.77-2.822 8.063-6.212 8.063-6.212s-.761 1.695-.51 2.574c.251.88 16.974-4.085 20.398 3.254 3.425 7.34-1.141 21.172-1.141 21.172l-2.12-.192z"/>
            <path fill="#FBAD83" d="M220 55.406c0 2.434-3.158 4.594-5.096 4.594-1.937 0-1.904-2.16-1.904-4.594 0-2.433 1.572-4.406 3.51-4.406 1.936 0 3.49 1.973 3.49 4.406z"/>
            <path fill="#E68D5C" d="M218.976 55.572c.197 1.031-.872 2.236-1.635 2.413-.763.177.879-1.23.68-2.26-.2-1.031-1.553-1.52-.79-1.697.763-.177 1.546.513 1.745 1.544z"/>
            <path fill="#1A2249" fill-rule="nonzero" d="M194.5 58c-1.93 0-3.5-2.018-3.5-4.5s1.57-4.5 3.5-4.5 3.5 2.018 3.5 4.5-1.59 4.5-3.5 4.5zm0-8.604c-1.71 0-3.1 1.84-3.1 4.104 0 2.264 1.39 4.104 3.1 4.104 1.71 0 3.1-1.844 3.1-4.104s-1.41-4.104-3.1-4.104zM202.5 58c-1.93 0-3.5-2.018-3.5-4.5s1.57-4.5 3.5-4.5 3.5 2.018 3.5 4.5-1.57 4.5-3.5 4.5zm0-8.604c-1.71 0-3.1 1.84-3.1 4.104 0 2.264 1.39 4.104 3.1 4.104 1.71 0 3.1-1.844 3.1-4.104s-1.39-4.104-3.1-4.104z"/>
            <path fill="#1A2249" d="M206 51.811h8v1h-8zM198 51.811h2v1h-2z"/>
            <path fill="#FFF" d="M195 64h7s-1.403 2.92-3.781 2.998C195.84 67.078 195 64 195 64z"/>
            <path fill="#FBAD83" d="M242.614 104l-10.884 3.777 5.254 21.323-11.672 45.876-3.31 1.968s-.188 4.91 3.426 5.855c3.614.944 4.924-1.745 4.924-1.745v-3.6c2.894-7.358 17.415-44.369 17.64-46.756.251-2.651-5.378-26.698-5.378-26.698z"/>
            <path fill="#60D6E6" d="M230.045 109.461s-4.458-12.778-2.586-17.933c1.35-3.717 3.954-4.97 5.963-5.492 2.008-.522 6.914 4.614 9.574 13.577 1.84 6.207 2.004 6.873 2.004 6.873s-9.27 5.159-14.955 2.975z"/>
            <path fill="#A55B3A" d="M220.642 78.521s1.123-1.173 4.014 0c2.89 1.173 3.475 3.097 3.322 5.025-.154 1.927-3.689 2.905-5.92 2.252-2.233-.653-4.21-3.195-4.049-4.227.161-1.032 2.633-3.05 2.633-3.05zM80.537 126.71a5.399 5.399 0 0 1-2.465-3.687 5.352 5.352 0 0 1 1.146-4.27c.117-.145.241-.286.377-.43 2.58-2.827 4.987-2.66 7.052-1.667 2.064.993 1.567 5.44-.15 7.712-1.719 2.272-4.751 3.045-5.825 2.428l-.135-.086z"/>
            <path fill="#FFF" d="M132 63l4.773 7 4.96-3.743 5.267 2.63-.705-5.686z"/>
            <path fill="#A55B3A" d="M132 46v17.749s3.009 2.53 8.302 2.226c4.896-.28 5.673-2.036 5.673-2.036L148 54.732 132 46z"/>
            <path fill="#8E4A2F" d="M146.376 61.879c-2.546.588-5.487-1.059-7.685-2.875C134.639 55.657 133 49 133 49l13.405 4.19 1.595.912-1.624 7.777z"/>
            <path fill="#1A2249" d="M155.868 24.496s2.282.896 2.124 6.634c-.077 2.714-1.042 7.87-1.042 7.87L151 23l4.868 1.496z"/>
            <path fill="#A55B3A" d="M155.865 53.486c-4.807 10.14-16.736 4.148-21.847-.962-5.11-5.11-4.4-24.646-2.986-28.354 1.414-3.707 13.22-6.705 19.447-4.314 6.228 2.391 10.192 23.484 5.386 33.63z"/>
            <path fill="#1A2249" d="M137.716 37s1.346 11.496 4.451 12.415c2.668.773 6.345-3.055 11.127-3.26 2.667-.116 3.624.139 4.706.88a23.922 23.922 0 0 1-1.905 7.317c-4.87 10.387-16.957 4.249-22.136-.985-2.492-2.542-3.635-8.54-3.959-14.482L137.716 37z"/>
            <path fill="#1A2249" d="M136.566 40.878s1.464.148 2.061-.735c.598-.883-1.12-5.87.616-11.16 1.236-3.79 6.855-5.961 11.455-5.044 4.6.917 5.757 1.33 6.227-.027.47-1.356-1.377-4.547-2.986-5.81-1.61-1.261-9.077-3.493-15.308-.909-6.231 2.585-7.467 4.302-8.878 8.402-1.412 4.1-.497 14.374 0 15.03.496.655 6.813.253 6.813.253z"/>
            <path fill="#A55B3A" d="M129 39.895c0 2.703 3.6 5.105 5.808 5.105 2.208 0 2.192-2.402 2.192-5.105 0-2.703-1.79-4.895-4.002-4.895-2.212 0-3.998 2.192-3.998 4.895z"/>
            <path fill="#1A2249" d="M158 47s0 12.492-1.418 14.746c-1.417 2.254-6.065 2.74-8.169 1.802-2.104-.94-5.537-4.328-6.375-7.195-.838-2.867 12.459-6.976 12.459-6.976L158 47z"/>
            <path fill="#8E4A2F" d="M130.036 38.964c-.299 1.287 1.306 2.793 2.453 3.017 1.147.224-1.32-1.535-1.02-2.826.3-1.29 2.33-1.896 1.183-2.12-1.147-.224-2.32.643-2.615 1.93z"/>
            <path fill="#FFF" d="M156 50.448s-5.258.151-6.133-.15L149 50s.023 2.77 2.462 3.725c2.438.955 3.772-.809 4.099-1.785.326-.976.439-1.492.439-1.492z"/>
            <path fill="#1A2249" d="M154.374 34.988a.371.371 0 0 1-.369-.294.351.351 0 0 1 .244-.392 8.374 8.374 0 0 1 4.458 0c.136.03.244.127.28.253a.339.339 0 0 1-.107.35.398.398 0 0 1-.381.076 7.733 7.733 0 0 0-4 0 .404.404 0 0 1-.125.007zM146.357 36a.369.369 0 0 1-.235-.08.322.322 0 0 1-.035-.473c.085-.09 2.09-2.22 5.664-1.144.121.036.213.13.24.247a.324.324 0 0 1-.106.32.372.372 0 0 1-.348.074c-3.118-.94-4.842.865-4.913.942a.365.365 0 0 1-.267.114z"/>
        </g>
    </g>
</svg>
