<svg xmlns="http://www.w3.org/2000/svg" width="47" height="47" viewBox="0 0 47 47">
    <g fill="none" fill-rule="evenodd">
        <circle cx="23.5" cy="23.5" r="23.5" fill="#FFBA02"/>
        <path d="M9.547 9.649H37.54v27.994H9.547z"/>
        <path fill="#25294A" d="M14.35 14.093l20.843 5.585a1.458 1.458 0 0 1 1.031 1.786l-2.868 10.703a1.458 1.458 0 0 1-1.785 1.031l-20.843-5.585a1.458 1.458 0 0 1-1.031-1.785l2.868-10.704a1.458 1.458 0 0 1 1.785-1.03zm7.403 14.06a4.666 4.666 0 1 0 2.415-9.014 4.666 4.666 0 0 0-2.415 9.013z" opacity=".3"/>
        <path fill="#25294A" d="M12.171 16.647H33.75c.805 0 1.458.653 1.458 1.458v11.081c0 .805-.653 1.458-1.458 1.458H12.17a1.458 1.458 0 0 1-1.458-1.458v-11.08c0-.806.653-1.459 1.458-1.459zm10.79 11.664a4.666 4.666 0 1 0 0-9.33 4.666 4.666 0 0 0 0 9.33zm0-2.332a2.333 2.333 0 1 0 0-4.666 2.333 2.333 0 0 0 0 4.666z"/>
    </g>
</svg>
