<svg xmlns="http://www.w3.org/2000/svg" width="178" height="59" viewBox="0 0 178 59">
    <defs>
        <linearGradient id="a" x1="61.012%" x2="26.55%" y1="4.948%" y2="71.907%">
            <stop offset="0%" stop-color="#00A0FF"/>
            <stop offset="1%" stop-color="#00A1FF"/>
            <stop offset="26%" stop-color="#00BEFF"/>
            <stop offset="51%" stop-color="#00D2FF"/>
            <stop offset="76%" stop-color="#00DFFF"/>
            <stop offset="100%" stop-color="#00E3FF"/>
        </linearGradient>
        <linearGradient id="b" x1="107.685%" x2="-130.64%" y1="50%" y2="50%">
            <stop offset="0%" stop-color="#FFE000"/>
            <stop offset="41%" stop-color="#FFBD00"/>
            <stop offset="78%" stop-color="#FFA500"/>
            <stop offset="100%" stop-color="#FF9C00"/>
        </linearGradient>
        <linearGradient id="c" x1="86.219%" x2="-50.15%" y1="30.873%" y2="136.162%">
            <stop offset="0%" stop-color="#FF3A44"/>
            <stop offset="100%" stop-color="#C31162"/>
        </linearGradient>
        <linearGradient id="d" x1="-18.754%" x2="42.121%" y1="-11.957%" y2="35.065%">
            <stop offset="0%" stop-color="#32A071"/>
            <stop offset="7%" stop-color="#2DA771"/>
            <stop offset="48%" stop-color="#15CF74"/>
            <stop offset="80%" stop-color="#06E775"/>
            <stop offset="100%" stop-color="#00F076"/>
        </linearGradient>
    </defs>
    <g fill="none" fill-rule="nonzero">
        <path fill="#212731" d="M6.876 0h164.003c2.39 0 3.258.25 4.131.716a4.874 4.874 0 0 1 2.028 2.027c.468.875.716 1.742.716 4.132V52.12c0 2.39-.249 3.258-.716 4.131a4.874 4.874 0 0 1-2.027 2.028c-.874.468-1.741.716-4.132.716H6.875c-2.39 0-3.258-.248-4.13-.716A4.873 4.873 0 0 1 .715 56.25C.248 55.376 0 54.509 0 52.119V6.876c0-2.391.25-3.258.716-4.133A4.874 4.874 0 0 1 2.743.716C3.618.248 4.485 0 6.876 0z"/>
        <path fill="url(#a)" d="M1.287.452a2.227 2.227 0 0 0-.511 1.557v24.613c-.034.565.149 1.122.511 1.557l.078.078 13.772-13.774v-.323L1.365.373l-.078.079z" transform="translate(20.7 16.2)"/>
        <path fill="url(#b)" d="M19.695 19.078l-4.558-4.595v-.323l4.558-4.607.1.056 5.458 3.104c1.556.88 1.556 2.326 0 3.216l-5.436 3.093-.122.056z" transform="translate(20.7 16.2)"/>
        <path fill="url(#c)" d="M19.828 19.01l-4.69-4.695L1.286 28.18a1.812 1.812 0 0 0 2.313.067l16.24-9.236" transform="translate(20.7 16.2)"/>
        <path fill="url(#d)" d="M19.828 9.62L3.588.384a1.81 1.81 0 0 0-2.312.068l13.862 13.863 4.69-4.695z" transform="translate(20.7 16.2)"/>
        <path fill="#000" d="M40.395 35.11l-16.107 9.18a1.854 1.854 0 0 1-2.223 0l-.078.078.078.079a1.844 1.844 0 0 0 2.223 0l16.24-9.236-.133-.1z" opacity=".2"/>
        <path fill="#000" d="M21.987 44.224a2.227 2.227 0 0 1-.511-1.558v.167a2.227 2.227 0 0 0 .511 1.558l.078-.079-.078-.088zm23.967-12.262l-5.558 3.15.1.099 5.458-3.094a1.948 1.948 0 0 0 1.112-1.602 2.07 2.07 0 0 1-1.112 1.447z" opacity=".12"/>
        <path fill="#FFF" d="M24.288 16.74l21.666 12.33a2.07 2.07 0 0 1 1.111 1.446 1.948 1.948 0 0 0-1.111-1.602l-21.666-12.33c-1.556-.878-2.823-.144-2.823 1.636v.167c.033-1.791 1.278-2.525 2.823-1.647z" opacity=".25"/>
        <path fill="#FFF" d="M70.702 21.37c-.81 0-1.557-.194-2.24-.583a4.374 4.374 0 0 1-1.627-1.603 4.381 4.381 0 0 1-.603-2.27c0-.835.201-1.592.603-2.271a4.374 4.374 0 0 1 1.626-1.602 4.448 4.448 0 0 1 2.241-.585 4.66 4.66 0 0 1 1.8.346 3.816 3.816 0 0 1 1.394.965l-.93.93a2.834 2.834 0 0 0-.995-.715 3.191 3.191 0 0 0-1.28-.25c-.55 0-1.062.13-1.539.393a2.978 2.978 0 0 0-1.144 1.12c-.286.484-.429 1.04-.429 1.669 0 .627.144 1.183.43 1.668a2.99 2.99 0 0 0 1.143 1.12c.477.262.994.394 1.55.394.509 0 .933-.076 1.276-.227.342-.15.648-.353.918-.607.174-.176.323-.393.446-.656a2.85 2.85 0 0 0 .244-.858H70.69v-1.192h4.158c.04.223.06.453.06.692 0 .54-.083 1.058-.25 1.555-.162.487-.435.93-.799 1.293-.802.85-1.855 1.274-3.159 1.274h.001zm8.247 0a3.101 3.101 0 0 1-1.602-.416 2.94 2.94 0 0 1-1.109-1.15 3.39 3.39 0 0 1-.4-1.651c0-.58.13-1.118.388-1.615.247-.484.62-.894 1.079-1.186a2.862 2.862 0 0 1 1.573-.44c.612 0 1.142.134 1.591.404.45.27.79.64 1.025 1.109.234.468.351.997.351 1.585 0 .111-.012.25-.036.417h-4.66c.049.564.25 1 .603 1.306.353.305.765.459 1.233.459a1.8 1.8 0 0 0 .972-.257c.274-.171.494-.403.66-.697l1.11.524a3.265 3.265 0 0 1-1.121 1.18c-.461.286-1.014.428-1.656.428h-.001zm1.561-3.944a1.515 1.515 0 0 0-.202-.637 1.45 1.45 0 0 0-.543-.531c-.242-.143-.538-.215-.887-.215-.421 0-.777.126-1.067.376-.29.25-.49.586-.602 1.008h3.301v-.001zm4.839 3.85a2.2 2.2 0 0 1-.763-.131 1.674 1.674 0 0 1-.584-.346c-.342-.342-.513-.806-.513-1.395v-3.145h-1.06v-1.157h1.061v-1.716h1.31v1.716h1.478v1.157h-1.477v2.86c0 .326.064.556.19.69.12.16.326.24.62.24.136 0 .254-.019.358-.055.118-.043.23-.101.333-.172v1.275c-.261.119-.58.179-.953.179zm5.721-7.056a.851.851 0 0 1-.625-.257.851.851 0 0 1-.257-.625c0-.246.086-.454.257-.625a.851.851 0 0 1 .625-.257c.246 0 .455.085.626.257.17.17.256.38.256.625a.851.851 0 0 1-.256.626.851.851 0 0 1-.626.256zm-.656.882h1.311v6.079h-1.311v-6.079zm5.376 6.174c-.27 0-.525-.044-.764-.131a1.674 1.674 0 0 1-.584-.346c-.342-.342-.513-.806-.513-1.395v-3.145h-1.06v-1.157h1.061v-1.716h1.312v1.716h1.477v1.157h-1.477v2.86c0 .326.063.556.19.69.12.16.325.24.62.24.135 0 .254-.019.357-.055.118-.043.23-.101.334-.172v1.275c-.262.119-.58.179-.954.179zm7.818.095c-.612 0-1.161-.14-1.645-.423a2.975 2.975 0 0 1-1.132-1.162 3.363 3.363 0 0 1-.405-1.645c0-.604.135-1.152.405-1.645.27-.492.648-.88 1.132-1.16a3.206 3.206 0 0 1 1.645-.424c.612 0 1.16.142 1.644.428.485.287.863.675 1.133 1.169a3.34 3.34 0 0 1 .404 1.632c0 .603-.135 1.152-.404 1.645a2.97 2.97 0 0 1-1.133 1.162 3.203 3.203 0 0 1-1.644.422zm0-1.204c.333 0 .643-.08.929-.244.286-.163.515-.397.686-.703.17-.306.256-.666.256-1.079 0-.414-.085-.771-.256-1.072a1.807 1.807 0 0 0-.686-.698 1.847 1.847 0 0 0-.929-.244c-.334 0-.644.081-.93.244a1.812 1.812 0 0 0-.685.698c-.171.301-.256.66-.256 1.072 0 .413.085.773.256 1.079.17.306.4.54.685.703.287.162.596.244.93.244zm4.266-5.065h1.251v.798h.06c.175-.286.435-.522.78-.709.339-.184.718-.28 1.103-.279.739 0 1.302.216 1.687.648.385.434.578 1.024.578 1.77v3.85h-1.31v-3.67c0-.478-.118-.827-.353-1.049-.234-.223-.558-.334-.972-.334-.293 0-.555.081-.785.244-.233.166-.418.39-.537.65-.127.27-.19.56-.19.87v3.29h-1.312v-6.079zM66.033 29.309h5.233c.941 0 1.8.198 2.575.593a4.514 4.514 0 0 1 1.827 1.66c.443.714.665 1.527.665 2.44 0 .914-.222 1.73-.665 2.45a4.491 4.491 0 0 1-1.827 1.673c-.775.394-1.634.591-2.575.591h-2.43v5.461h-2.803V29.31zm5.316 6.75c.692 0 1.236-.201 1.63-.603.388-.384.602-.909.592-1.454 0-.567-.198-1.049-.592-1.443-.394-.394-.938-.592-1.63-.592h-2.513v4.092h2.513zm6.232-6.75h2.72v14.868h-2.72V29.31zm7.686 15.2c-1.122 0-2.043-.328-2.763-.985-.72-.658-1.08-1.52-1.08-2.586 0-.706.187-1.329.56-1.869.375-.54.887-.955 1.538-1.246.65-.29 1.37-.436 2.16-.436 1.093 0 2.028.16 2.802.478v-.457c0-.582-.217-1.053-.653-1.413-.437-.36-1.022-.54-1.755-.54-.499 0-.98.116-1.444.343a3.4 3.4 0 0 0-1.152.904l-1.744-1.37a5.125 5.125 0 0 1 1.93-1.537c.776-.36 1.62-.54 2.534-.54 1.62 0 2.853.373 3.697 1.121.845.747 1.267 1.842 1.267 3.28v6.521h-2.68v-1.08h-.165a3.606 3.606 0 0 1-1.257 1.018c-.519.263-1.117.395-1.796.395zm.642-2.117c.79 0 1.416-.252 1.88-.758.453-.48.703-1.116.695-1.776a5.157 5.157 0 0 0-2.22-.498c-1.414 0-2.12.526-2.12 1.578 0 .43.154.779.458 1.049.304.27.74.405 1.307.405zm10.012 1.287l-4.465-10.092h3.094l2.742 6.583h.165l2.637-6.583h3.033l-6.542 15.076h-2.927l2.263-4.983v-.001zm16.097.831c-1.3 0-2.45-.367-3.447-1.1-.997-.735-1.696-1.773-2.096-3.115l2.637-1.039c.207.79.56 1.42 1.058 1.89s1.121.706 1.87.706c.622 0 1.155-.156 1.598-.467.443-.312.665-.745.665-1.298a1.692 1.692 0 0 0-.634-1.36c-.423-.354-1.173-.73-2.253-1.132l-.914-.332a6.31 6.31 0 0 1-2.45-1.527c-.678-.685-1.017-1.547-1.017-2.585 0-.774.2-1.48.601-2.118.402-.637.97-1.139 1.703-1.506.735-.366 1.564-.55 2.493-.55 1.342 0 2.401.315 3.177.945.774.63 1.308 1.367 1.599 2.212l-2.472 1.038a2.475 2.475 0 0 0-.799-1.153c-.38-.311-.868-.468-1.464-.468-.61 0-1.11.143-1.506.427-.394.283-.591.654-.591 1.11 0 .444.186.821.56 1.133.374.311.99.612 1.848.902l.935.313c1.287.443 2.274 1.028 2.96 1.755.684.726 1.027 1.677 1.027 2.854 0 .97-.25 1.79-.748 2.461a4.575 4.575 0 0 1-1.92 1.506 6.129 6.129 0 0 1-2.42.498zm10.613-.166a4.27 4.27 0 0 1-1.453-.239c-.443-.159-.803-.378-1.08-.654-.65-.623-.976-1.51-.976-2.659v-4.88h-1.848v-2.324h1.848v-2.99h2.72v2.99h2.597v2.326h-2.597v4.382c0 .54.118.927.354 1.163.193.22.525.332.996.332.264 0 .482-.035.654-.104.173-.07.398-.187.675-.354v2.659a5.095 5.095 0 0 1-1.89.353v-.001zm7.914.166c-1.093 0-2.07-.245-2.928-.738a5.236 5.236 0 0 1-2.004-2.014c-.477-.851-.716-1.809-.716-2.875 0-1.053.239-2.007.716-2.866a5.215 5.215 0 0 1 2.004-2.025c.859-.491 1.835-.738 2.928-.738 1.08 0 2.05.247 2.907.738a5.215 5.215 0 0 1 2.004 2.025c.477.858.717 1.814.717 2.866 0 1.065-.239 2.025-.717 2.875a5.236 5.236 0 0 1-2.003 2.014c-.859.493-1.827.738-2.907.738h-.001zm0-2.512c.526 0 1.01-.125 1.454-.375a2.741 2.741 0 0 0 1.059-1.08c.263-.47.395-1.024.395-1.66 0-.623-.132-1.17-.395-1.641a2.741 2.741 0 0 0-1.06-1.08 2.914 2.914 0 0 0-1.453-.373c-.526 0-1.01.124-1.453.373a2.813 2.813 0 0 0-1.07 1.08c-.27.47-.405 1.017-.405 1.64s.135 1.173.405 1.651c.27.477.627.842 1.07 1.09.442.25.926.375 1.453.375zm6.647-8.41h2.555v1.411h.165c.264-.498.672-.91 1.226-1.236a3.541 3.541 0 0 1 1.827-.487c.485 0 .927.076 1.33.228v2.72a8.817 8.817 0 0 0-.946-.3 3.462 3.462 0 0 0-.82-.094c-.803 0-1.44.29-1.91.872-.471.581-.707 1.315-.707 2.201v5.274h-2.72V33.588zM149.55 44.51c-1.052 0-2-.243-2.844-.727a5.204 5.204 0 0 1-1.983-2.004c-.477-.852-.717-1.81-.717-2.876 0-1.01.235-1.948.706-2.814a5.437 5.437 0 0 1 1.953-2.065c.83-.513 1.758-.769 2.782-.769 1.093 0 2.035.235 2.824.706a4.604 4.604 0 0 1 1.796 1.931c.41.817.613 1.723.613 2.72 0 .32-.02.623-.063.914h-7.953c.139.844.474 1.485 1.008 1.92.533.437 1.173.655 1.92.655.623 0 1.16-.135 1.61-.405.45-.27.806-.633 1.07-1.09l2.2 1.08c-1.08 1.883-2.72 2.824-4.92 2.824h-.002zm2.513-6.915a2.1 2.1 0 0 0-.363-.987 2.535 2.535 0 0 0-.893-.81c-.38-.214-.827-.32-1.34-.32-.65 0-1.207.189-1.67.57-.464.38-.8.896-1.009 1.548h5.275v-.001z"/>
    </g>
</svg>
