<svg xmlns="http://www.w3.org/2000/svg" width="47" height="47" viewBox="0 0 47 47">
    <g fill="none" fill-rule="evenodd">
        <circle cx="23.5" cy="23.5" r="23.5" fill="#FFBA02"/>
        <path d="M9.547 9.649H37.54v27.994H9.547z"/>
        <path fill="#25294A" fill-rule="nonzero" d="M28.247 16.283L16.263 28.248a1.9 1.9 0 1 0 2.686 2.687L30.915 18.95a1.887 1.887 0 0 0-2.668-2.668z"/>
        <path fill="#25294A" d="M21.044 17.73a3.417 3.417 0 1 1-6.83-.002 3.417 3.417 0 0 1 6.83.002zm11.83 11.831a3.417 3.417 0 1 1-6.83-.002 3.417 3.417 0 0 1 6.83.002z" opacity=".3"/>
    </g>
</svg>
