<svg xmlns="http://www.w3.org/2000/svg" xmlns:xlink="http://www.w3.org/1999/xlink" width="371" height="177" viewBox="0 0 371 177">
    <defs>
        <path id="a" d="M6 0h359a6 6 0 0 1 6 6v171H0V6a6 6 0 0 1 6-6z"/>
    </defs>
    <g fill="none" fill-rule="evenodd">
        <mask id="b" fill="#fff">
            <use xlink:href="#a"/>
        </mask>
        <use fill="#F9F6EC" xlink:href="#a"/>
        <g mask="url(#b)">
            <g transform="translate(24 26)">
                <path fill="#00B98F" d="M284.992 162s.457-13.97 0-34.558c-.456-20.587 22.79-39.336 41.994-29.958 0 0-12.328.15-21.1 7.695-8.774 7.544-13.745 11.977-14.458 24.902-.712 12.924-3.33 31.919-3.33 31.919h-3.106z"/>
                <path fill="#00B98F" d="M277.033 161.96s-1.477-41.06-6.27-57.085C265.969 88.85 272.394 53 272.394 53s.229 27.704 4.131 41.343c3.902 13.639 10.58 31.257 9.3 47.222-1.278 15.966-4.568 20.435-4.568 20.435l-4.224-.04z"/>
                <path fill="#068E6A" d="M280.34 108.336L269.985 105c.044.154.089.308.137.457 4.997 15.862 6.531 56.504 6.531 56.504l4.408.039s3.435-4.424 4.759-20.226c.92-10.993-2.156-22.746-5.482-33.438z"/>
                <path fill="#00C99C" d="M277.131 161.984s6.496-20.436-4.825-52.994C260.985 76.432 246.986 69 246.986 69s12.62 27.423 17.904 48.885c5.284 21.461 5.344 44.115 5.344 44.115l6.897-.016z"/>
                <path fill="#068E6A" d="M292.174 107c-4.53 5.722-7.338 12.9-7.182 20.316.435 20.679 0 34.684 0 34.684h3.017s2.547-19.068 3.235-32.035c.498-9.321 3.134-14.24 7.742-19.088L292.174 107z"/>
                <path fill="#00C99C" d="M280.61 162s3.38-19.695-.35-47.573C276.533 86.549 311.987 62 311.987 62s-18.601 22.108-22.004 40.039c-3.403 17.931-.688 40.103-2.821 51.24-1.313 6.861-1.427 8.721-1.427 8.721h-5.124z"/>
                <path fill="#00C99C" d="M287.883 162s1.921-12.267 1.684-30.442c-.238-18.176 11.486-33.397 0-60.321-11.486-26.925-19.581-26.219-19.581-26.219s13.6-1.19 23.141 15.74c9.54 16.931 11.518 38.692 5.236 59.576-6.283 20.885-5.9 41.666-5.9 41.666h-4.58z"/>
                <path fill="#00B98F" d="M277.191 161.98s4.97-16.31-1.63-43.02L264.986 116c.123.497.247.995.362 1.488 5.108 21.654 5.17 44.512 5.17 44.512l6.673-.02zM280.68 123.666c2.094 22.888-.694 38.334-.694 38.334h5.415s.12-1.857 1.501-8.71c1.452-7.194.778-19.001 1.084-31.29l-7.305 1.666zM289.728 133c.123 17.382-1.742 29-1.742 29h4.722c.028-8.61.79-17.203 2.278-25.694L289.728 133z"/>
                <path fill="#60D6E6" d="M215.239 137.743l-2.253 22.611 2.253 49.568s4.157 1.634 6.47.879l2.312-.755 1.52-47.755L233.986 137l-18.747.743z"/>
                <path fill="#60D6E6" d="M228.986 140.479l2.306 22.477 12.076 47.81s4.394.754 6.506-.445l2.112-1.191-8.031-46.825L247.172 136l-18.186 4.479z"/>
                <path fill="#F89900" d="M218.542 54l-7.188 28.638-19.368 8.248s.529 3.102 2.14 4.114c0 0 21.134-6.713 24.404-8.568 3.27-1.855.012-32.432.012-32.432z"/>
                <path fill="#F9C200" d="M234.112 48l14.686 5.69 1.188 53.31-36-2.675 3.717-48.536a7.526 7.526 0 0 1 4.525-6.313l2.514-1.085 9.37-.391z"/>
                <path fill="#303D72" d="M175.986 114s-4.303 39.28-6.173 46.446l3.089 49.676s-4.606 1.976-7.792 0c0 0-8.28-42.183-8.122-47.82.158-5.637 3.633-44.621 3.633-44.621L175.986 114z"/>
                <path fill="#303D72" d="M153.962 115s-.574 39.406-1.76 46.679l7.784 49.01s-4.406 2.389-7.771.717c0 0-12.258-41.11-12.63-46.722-.373-5.613-.6-44.617-.6-44.617L153.963 115z"/>
                <path fill="#0CBFD1" d="M145.986 51l-10.577 31.502-15.423 6.452L121.44 94l21.767-5.228z"/>
                <path fill="#60D6E6" d="M162.759 46.666l9.526 2.955a8.16 8.16 0 0 1 5.72 7.405l2.98 60.974-43-1.1 7.543-65.062a5.552 5.552 0 0 1 3.87-4.67L153.18 46l9.578.666z"/>
                <path fill="#50CAD3" d="M141.686 90.664l-2.7 23.336h42l-1.604-32.89-8.96-19.11 1.195 14.956-18.684 10.628z"/>
                <path fill="#EDB607" d="M213.986 100.647l36 6.353-.919-41.7-5.763-3.3-4.482 27.822-23.862 1.557z"/>
                <path fill="#1A2249" d="M91.075 123l3.91 37.517-2.958 50.617s-4.342 4.199-11.284 0l-.665-48.55-14.092-28.269L91.075 123z"/>
                <path fill="#303D72" d="M49.766 112s-2.255 20.884-1.281 35.668c.973 14.784 2.073 16.815 2.073 16.815l-4.572 46.94s4.024 2.035 6.767 1.482l2.76-.554 9.691-48.421 8.782-49.159L49.766 112z"/>
                <path fill="#27345E" d="M64.399 113.691L49.523 112s-2.274 20.97-1.29 35.814c.983 14.844 2.095 16.883 2.095 16.883L50.105 167l14.824-1.967.179-.892 7.878-43.821-8.587-6.629z"/>
                <path fill="#F0F1F4" d="M80.598 43l12.16 5.003 4.228 66.055s-34.163 10.333-51-2.46l6.23-57.415a9.01 9.01 0 0 1 5.792-7.475l11.345-3.577L80.598 43z"/>
                <path fill="#E2E2E2" d="M96.986 114.087l-1.577-24.302H63.667L60.87 66.501 50.974 66l-4.988 45.644c16.837 12.7 51 2.443 51 2.443z"/>
                <path fill="#FF9398" d="M263.986 157h-209V94h209z"/>
                <path fill="#F4828B" d="M111.81 94l28.176 63h-85V94z"/>
                <path fill="#FFF" fill-rule="nonzero" d="M68.986 144v-38l.286.154 33.714 18.002-34 19.844zm.392-37.343v36.659l32.812-19.145-32.812-17.514zM177.986 144h-38v-38h38v38zm-37.602-.398h37.203v-37.204h-37.203v37.204zM231.986 144a19 19 0 1 1 19-18.996c-.013 10.487-8.513 18.985-19 18.996zm0-37.597a18.601 18.601 0 1 0 18.601 18.601c-.004-10.272-8.328-18.6-18.6-18.609v.008z"/>
                <path fill="#FBAD83" d="M68.986 29v14.197s2.444 2.025 6.744 1.783c3.976-.226 4.612-1.63 4.612-1.63l1.644-7.363-13-6.987"/>
                <path fill="#E68D5C" d="M80.627 43a16.91 16.91 0 0 1-4.372-2.727c-1.987-1.603-3.473-3.786-4.27-6.273l8.67 1.723 1.33.768L80.628 43"/>
                <path fill="#1A2249" d="M84.986 20.801h7v1h-7z"/>
                <path fill="#1A2249" d="M89.71 10.717s1.276 3.14 1.276 5.886c0 2.212-.894 6.397-.894 6.397l-5.106-13 4.724.717z"/>
                <path fill="#FBAD83" d="M89.23 35.453c-3.949 8.363-13.747 3.421-17.943-.8-4.196-4.222-3.616-20.335-2.456-23.388 1.16-3.053 10.86-5.53 15.977-3.562 5.118 1.97 8.372 19.38 4.423 27.746"/>
                <path fill="#DCDDE3" d="M90.982 29a18.278 18.278 0 0 1-1.489 5.644c-1.512 3.184-3.916 4.352-6.507 4.356 2.603 0 5.007-1.172 6.507-4.356.795-1.79 1.3-3.695 1.493-5.644"/>
                <path fill="#D8987A" d="M72.463 22.028h-4.477c.274 4.793 1.208 9.586 3.257 11.636C73.803 36.2 78.42 39 82.568 39c2.733 0 5.262-1.222 6.844-4.542a18.923 18.923 0 0 0 1.574-5.891c-.753-.508-1.437-.731-2.96-.731h-.901c-3.567.152-6.393 2.712-8.515 2.712a2.19 2.19 0 0 1-.628-.088c-2.548-.739-5.52-8.46-5.52-8.46"/>
                <path fill="#1A2249" d="M69.916 23.827a5.317 5.317 0 0 0 3.653-1.999 5.433 5.433 0 0 0 1.126-4.04c-.227-1.828-.756-2.416-.286-4.14.932-3.442 5.018-3.12 7.773-1.84 2.756 1.281 5.763 1.285 8.133-.527a4.409 4.409 0 0 0 1.015-5.77C89.81 3.012 84.35 0 84.35 0s.661 1.506.442 2.287c-.22.78-14.735-3.624-17.702 2.899C64.122 11.708 68.08 24 68.08 24l1.836-.173z"/>
                <path fill="#FBAD83" d="M66.986 23.918c0 2.163 2.699 4.082 4.355 4.082 1.656 0 1.645-1.919 1.645-4.082 0-2.164-1.344-3.918-3.011-3.918-1.668 0-2.99 1.75-2.99 3.918z"/>
                <path fill="#E68D5C" d="M68.01 23.578c-.199 1.03.872 2.228 1.64 2.407.767.178-.88-1.225-.682-2.254.199-1.028 1.558-1.509.78-1.7-.78-.191-1.54.523-1.738 1.547z"/>
                <path fill="#1A2249" fill-rule="nonzero" d="M88.984 26c-1.632 0-2.998-1.795-2.998-4.002 0-2.208 1.346-3.998 2.998-3.998 1.652 0 3.002 1.795 3.002 3.998C91.986 24.2 90.64 26 88.984 26zm0-7.583c-1.428 0-2.59 1.605-2.59 3.577 0 1.971 1.162 3.58 2.59 3.58 1.427 0 2.594-1.605 2.594-3.58 0-1.976-1.162-3.573-2.594-3.573v-.004zM81.988 26c-1.658 0-3.002-1.795-3.002-4.002 0-2.208 1.344-3.998 3.002-3.998 1.658 0 2.998 1.778 2.998 3.998S83.642 26 81.988 26zm0-7.583c-1.43 0-2.594 1.605-2.594 3.577 0 1.971 1.164 3.58 2.594 3.58s2.59-1.583 2.59-3.576-1.16-3.577-2.59-3.577v-.004z"/>
                <path fill="#1A2249" d="M72.986 20.801h7v1h-7zM84.986 20.801h1v1h-1z"/>
                <path fill="#FFF" d="M87.986 31h-7s1.418 2.915 3.779 2.998c2.36.084 3.22-2.998 3.22-2.998z"/>
                <path fill="#1A2249" d="M90.984 31h-9.998s.154-2.41 1.876-3.35c1.723-.94 3.588.24 4.176.2.589-.04 2.196-1.251 3.115-.712.919.539.83 3.862.83 3.862z"/>
                <path fill="#FBAD83" d="M49.986 121.972s1.431 9.444 2.003 11.064c.571 1.62 2.467 2.964 4.775 2.964 2.307 0 2.768-5.483 1.908-9.262-.86-3.778-.382-4.766-.382-4.766s1.813 2.519 2.957 3.24c1.143.72 2.739.042 2.739.042s-2.928-4.541-4.742-5.812S54.757 118 54.757 118l-4.771 3.972z"/>
                <path fill="#F0F1F4" d="M53.635 51S35.071 81.124 33.132 86.048c-1.94 4.924 16.061 36.488 16.061 36.488s2.472 1.853 5.363-1.846c1.567-1.988 1.849-3.384 1.849-3.384L43.556 87.32s17.942-15.794 18.412-24.162C62.438 54.79 53.635 51 53.635 51z"/>
                <path fill="#FBAD83" d="M109.519 90.627s.702 6.6.384 9.165c-.318 2.564-2.478 4.538-4.73 4.162-2.251-.376-1.276-9.8-1.276-9.8h-2.892a2.03 2.03 0 0 1 1.025-2.047A9.244 9.244 0 0 0 104.265 90l5.254.627z"/>
                <path fill="#F0F1F4" d="M93.336 48s20.98 9.505 24.088 13.034c3.107 3.529-7.68 30.306-7.68 30.306s-2.56 1.486-4.935 0l-1.37-.93 5.332-24.293s-15.053-2.403-19.5-5.327C84.826 57.866 93.337 48 93.337 48z"/>
                <path fill="#FFF" d="M162.986 47.614s-2.672 4.457-6.772 4.385c-4.1-.071-3.127-4.999-3.127-4.999l9.899.614z"/>
                <path fill="#EDB607" d="M146.354 23s-1.97 16.308-1.182 19.501c.788 3.193 8.65 2.54 12.582 2.216 3.933-.323 6.006.214 7.72-.763 1.714-.977-1.426-11.181-1.426-11.181L146.354 23z"/>
                <path fill="#FFF" d="M150.9 45c-2.736-.077-4.914-2.293-4.914-5s2.178-4.923 4.914-5c.114 0 .206.091.206.203a.205.205 0 0 1-.206.204c-2.44.013-4.454 1.894-4.605 4.303-.151 2.409 1.611 4.521 4.032 4.832 2.42.312 4.67-1.285 5.147-3.652.477-2.367-.983-4.695-3.34-5.324a.203.203 0 0 1-.143-.249.196.196 0 0 1 .094-.125.2.2 0 0 1 .157-.017c2.452.65 4.035 3 3.7 5.488-.337 2.488-2.487 4.344-5.026 4.337h-.016z"/>
                <path fill="#FBAD83" d="M152.986 40.207l.736 6.329s.863 1.462 5.43 1.462a8.45 8.45 0 0 0 3.834-.835V36l-10 4.207z"/>
                <path fill="#E68D5C" d="M152.986 39.736l.501 4.242a8.509 8.509 0 0 0 2.465-.183c1.067-.24 4.109-3.35 6.034-7.795l-9 3.736z"/>
                <path fill="#FBAD83" d="M146.375 19.565s-1.123 11.133.445 16.524c1.567 5.391 6.443 7.679 10.75 6.684 1.616-.367 7.389-6.87 8.12-14.924.731-8.054.032-10.466-1.277-12.168-1.309-1.701-13.19-3.819-15.351-1.956-2.161 1.863-2.687 5.84-2.687 5.84z"/>
                <path fill="#F9C200" d="M149.986 18.839s-3.333 5.007-4.173 5.156c-.841.15-.937-3.182-.741-6.179.33-4.72 3.425-6.816 3.425-6.816l1.489 7.839z"/>
                <path fill="#F9C200" d="M146.986 14.506s1.08 5.89 3.346 9.413c2.267 3.523 10.794 2.242 12.303 2.349 1.509.107-.213 11.956-1.292 15.904-1.08 3.948 6.689 2.778 9.173 2.242 2.483-.536 3.78-21.344.541-29.408-3.238-8.063-16.624-7.745-20.295-5.98a6.67 6.67 0 0 0-3.776 5.48z"/>
                <path fill="#EDB607" d="M161.09 42.201c-1.103 3.919 6.84 2.743 9.374 2.214 1.713-.356 2.87-9.834 2.427-18.415l-9.865 2.57c.061 3.558-1.12 10.74-1.936 13.631z"/>
                <path fill="#FBAD83" d="M165.986 32.938c0 1.62-2.247 3.062-3.63 3.062s-1.37-1.442-1.37-3.062c0-1.62 1.12-2.938 2.502-2.938 1.383 0 2.498 1.314 2.498 2.938z"/>
                <path fill="#E68D5C" d="M164.956 32.25c-.14-.835-1.241-1.36-1.836-1.23-.594.13.968.608 1.109 1.442.14.834-.694 1.651-.103 1.525.59-.126.971-.921.83-1.738z"/>
                <path fill="#F76A00" d="M156.618 30a.312.312 0 0 1-.203-.076l-2.312-1.933-1.654.557c-.196.067-.398-.084-.45-.338a.598.598 0 0 1 .036-.363c.05-.11.13-.19.226-.222l1.813-.61a.301.301 0 0 1 .295.062l2.448 2.047c.137.115.2.332.154.534-.046.202-.19.341-.353.342zM145.359 29a.36.36 0 0 1-.311-.203c-.112-.2-.068-.471.1-.607l1.448-1.118a.322.322 0 0 1 .296-.058l1.818.564c.095.03.177.104.226.206.05.101.063.222.037.335-.053.235-.255.375-.452.313l-1.659-.515-1.31 1.008a.332.332 0 0 1-.193.075z"/>
                <path fill="#FFF" d="M163.025 44.998a4.878 4.878 0 0 1-4.36-2.457 5.089 5.089 0 0 1 0-5.082 4.878 4.878 0 0 1 4.36-2.457c.11 0 .2.091.2.203 0 .113-.09.204-.2.204-2.362.013-4.31 1.892-4.456 4.297-.146 2.406 1.56 4.516 3.902 4.826 2.342.311 4.52-1.283 4.98-3.647.462-2.364-.95-4.688-3.23-5.317a.21.21 0 0 1-.148-.257.206.206 0 0 1 .251-.15c2.396.638 3.948 3.001 3.618 5.505-.331 2.505-2.441 4.364-4.917 4.332z"/>
                <path fill="#FBAD83" d="M119.791 90c-1.575.695-3.099 1.49-4.562 2.378-1.72 1.128-3.16 5.716-3.239 6.726-.078 1.01.9 2.527 2.294 2.877 1.393.35 3.774-4.277 4.101-5.11.26-.84.439-1.7.535-2.57h1.311l.755-.394L119.79 90zM157.28 90s-4.771.58-6.782 2.27c-2.01 1.692-3.082 6.95-2.201 8.144.881 1.193 3.395.301 4.902-.36 1.507-.66 2.575-5.83 2.575-5.83l4.212-.857L157.28 90z"/>
                <path fill="#60D6E6" d="M177.868 54.078s10.75 22.132 11.115 29.694C189.347 91.334 158.71 94 158.71 94s-2.076-2.483-1.672-4.97l22.577-8.576s-8.361-15.31-9.36-21.393c-.998-6.084 7.613-4.983 7.613-4.983z"/>
                <path fill="#1A2249" d="M226.986 43.194l-11 1.806V27z"/>
                <path fill="#A55B3A" d="M233.986 33v14.196s-2.067 2.016-5.706 1.786c-2.678-.182-3.863-1.42-3.863-1.42l-1.431-7.58 11-6.982z"/>
                <path fill="#8E4A2F" d="M233.986 35.386c-.1.247-.22.486-.356.717-1.88 3.082-5.662 7.619-9.67 8.897l-.974-5.094 11-6.906v2.386z"/>
                <path fill="#A55B3A" d="M214.66 39.183c3.767 7.992 13.26 1.58 17.263-2.468 4.002-4.047 3.313-17.725 2.205-20.639-1.109-2.914-10.363-5.287-15.246-3.403-4.884 1.883-7.99 18.514-4.222 26.51z"/>
                <path fill="#1A2249" d="M229.072 46l9.592-3.252s1.406-22.046-1.661-27.57c-3.068-5.525-11.176-7.385-16.408-5.415-7.61 2.866-7.495 12.975-7.61 13.872a15.333 15.333 0 0 1 5.343-.036c1.963.357 3.968.415 5.947.173l3.732-.448L229.072 46z"/>
                <path fill="#A55B3A" d="M233.986 30.925c0 1.632-1.802 3.075-2.907 3.075-1.104 0-1.093-1.443-1.093-3.075 0-1.632.894-2.925 1.998-2.925s2.002 1.285 2.002 2.925z"/>
                <circle cx="229.986" cy="35" r="2" fill="#FFF"/>
                <path fill="#1A2249" fill-rule="nonzero" d="M214.49 33c-1.932 0-3.504-1.709-3.504-3.813V29h7v.201c.008 2.09-1.564 3.799-3.496 3.799zm-3.088-3.642c.086 1.825 1.438 3.269 3.088 3.269 1.65 0 3.01-1.452 3.092-3.269h-6.18zM222.488 33c-1.93 0-3.502-1.709-3.502-3.813V29h7v.187c0 2.104-1.567 3.813-3.498 3.813zm-3.086-3.642c.086 1.825 1.437 3.269 3.086 3.269 1.649 0 3.008-1.452 3.09-3.269h-6.176z"/>
                <path fill="#1A2249" d="M216.986 28.801h13v1h-13z"/>
                <path fill="#A55B3A" d="M191.734 91a33.97 33.97 0 0 0-4.147 1.093c-1.886.665-5.724 5.357-5.598 6.139.126.781 1.447 2.334 3.659 1.556 2.211-.778 5.972-6.057 5.972-6.057h1.366s-.687-.759-1.252-2.731zM268.522 101s1.044 4.108 0 7.84c-1.045 3.732-4.363 7.767-5.992 7.084-1.63-.683.922-8.788.922-8.788l.383-4.62 4.687-1.516z"/>
                <path fill="#F9C200" d="M239.986 60.634l15.377 13.93 7.886 29.055s.355 1.019 3.284-.275l2.453-1.082s-2.634-26.23-6.309-33.62C259.002 61.25 248.771 53 248.771 53l-8.785 7.634z"/>
            </g>
        </g>
    </g>
</svg>
