<svg xmlns="http://www.w3.org/2000/svg" xmlns:xlink="http://www.w3.org/1999/xlink" width="371" height="177" viewBox="0 0 371 177">
    <defs>
        <path id="a" d="M6 0h359a6 6 0 0 1 6 6v171H0V6a6 6 0 0 1 6-6z"/>
    </defs>
    <g fill="none" fill-rule="evenodd">
        <mask id="b" fill="#fff">
            <use xlink:href="#a"/>
        </mask>
        <use fill="#F9F6EC" xlink:href="#a"/>
        <g mask="url(#b)">
            <g transform="translate(42 23)">
                <path fill="#FBAD83" d="M234.483 38.776l-2.374 9.796a8.658 8.658 0 0 1-7.464.4l-4.129-1.692 1.823-10.8 12.144 2.296z"/>
                <path fill="#E68D5C" d="M222.363 36.496l-1.6 9.516a21.38 21.38 0 0 0 5.094-2.492 18.749 18.749 0 0 0 1.715-1.276c1.05-.884 1.906-2.4 2.59-4.28l-7.8-1.468z"/>
                <ellipse cx="235.159" cy="29.984" fill="#19192B" rx="3.874" ry="6.152"/>
                <ellipse cx="236.61" cy="29.984" fill="#19192B" rx="3.874" ry="6.152"/>
                <ellipse cx="238.632" cy="29.984" fill="#19192B" rx="2.111" ry="3.352"/>
                <path fill="#19192B" d="M237.317 30c0-1.852.944-3.352 2.111-3.352 1.167 0 2.107 1.5 2.107 3.352 0 1.852-.944 3.348-2.107 3.348-1.163 0-2.11-1.516-2.11-3.348z"/>
                <path fill="#0CBFD1" d="M191.622 121.428L161.465 178.8s-6.395.496-7.65-2.144l-1.248-2.64 21.095-55.9 17.96 3.312z"/>
                <path fill="#60D6E6" d="M210.706 111.92s-36.956-4.4-44.208-1.54c-7.251 2.86-.204 43.096 5.713 63.764l1.978 7.056s2.179 1.32 6.472 0l4.294-1.32s-5.07-51.688-4.294-53.448c.776-1.76 5.113-1.368 5.113-1.368h24.932V111.92z"/>
                <path fill="#50CAD3" d="M210.442 118.744l-9.002-7.776c-3.174-.308-6.916-.64-10.793-.916l-10.73 15.012.904.8c1.347-1.108 4.677-.8 4.677-.8h24.928l.016-6.32z"/>
                <path fill="#313154" d="M122.798 97.408h14.45V63.54h-14.45v33.868"/>
                <path fill="#A9C2DC" d="M124.609 97.408h14.455V63.54h-14.455v33.868"/>
                <path fill="#A9C2DC" d="M132.192 95.316h24.616v2.092h-24.616z"/>
                <path fill="#313154" d="M124.609 95.316h15.758v2.092h-15.758z"/>
                <path fill="#313154" fill-rule="nonzero" d="M213.16 32.46c-1.598 0-2.917-1.692-2.917-3.776 0-2.084 1.31-3.772 2.918-3.772 1.607 0 2.922 1.692 2.922 3.772s-1.311 3.776-2.922 3.776zm0-7.148c-1.386 0-2.518 1.516-2.518 3.372 0 1.856 1.132 3.376 2.519 3.376 1.387 0 2.522-1.516 2.522-3.376 0-1.86-1.131-3.372-2.522-3.372z"/>
                <path fill="#FBAD83" d="M214.752 38.692c2.966 7.9 11.592 5.44 16.757 2.028.595-.393 1.167-.82 1.715-1.276 4.665-3.932 5.464-20.4 4.537-23.6-.927-3.2-10.661-6.6-16.078-5.044-5.416 1.556-10.257 19.024-6.931 27.892z"/>
                <path fill="#1A2249" d="M230.254 40.224a6.904 6.904 0 0 0 6.724-5.024c1.886-6.708 4.273-18 0-21.048-6.2-4.4-11.49-5.66-16.942-3.6s-5.716 7.2-4.857 8.86c.86 1.66 2.735.436 3.346 2.896.304 1.2-.308 3.692-1.007 5.896a4.302 4.302 0 0 0 2.994 5.44 5.09 5.09 0 0 0 .773 4.484 5.084 5.084 0 0 0 4.048 2.072l4.92.024z"/>
                <path fill="#CFDCE3" d="M221.967 32.236c-.272 2.112-2.398 3.744-3.598 3.6-1.199-.144-.92-2.028-.647-4.14.272-2.112 1.435-3.704 2.606-3.552 1.171.152 1.907 1.98 1.64 4.092z"/>
                <path fill="#19192B" d="M273.822 195.816h5.053l-16.765-93.572h-5.057z"/>
                <path fill="#A9C2DC" d="M276.72 195.816h5.053l-16.77-93.572h-5.052zM213.333 195.816h-5.057l16.77-93.572h5.056z"/>
                <path fill="#19192B" d="M215.711 195.816h-5.053l16.766-93.572h5.056zM101.62 195.816h5.056l-16.77-93.572H84.85z"/>
                <path fill="#A9C2DC" d="M104.518 195.816h5.056l-16.769-93.572h-5.057z"/>
                <path fill="#FFF" d="M34.094 97.408h247.679v4.836H34.094z"/>
                <path fill="#A9C2DC" d="M34.094 99.824h247.679v2.42H34.094z"/>
                <path fill="#303D72" d="M34.094 97.408h75.476v4.836H34.094z"/>
                <path fill="#19192B" d="M34.094 99.824h75.476v2.42H34.094z"/>
                <path fill="#A9C2DC" d="M39.151 195.816h-5.057l16.77-93.572h5.052z"/>
                <path fill="#19192B" d="M41.53 195.816h-5.057l16.77-93.572h5.056z"/>
                <path fill="#313154" d="M168.733 89.088H99.137a2.443 2.443 0 0 1-2.442-2.444l-4.198-52.94a2.447 2.447 0 0 1 2.443-2.444h69.604a2.443 2.443 0 0 1 2.442 2.444l4.19 52.94a2.447 2.447 0 0 1-2.443 2.444"/>
                <path fill="#A9C2DC" d="M170.712 89.088h-69.604a2.443 2.443 0 0 1-2.443-2.444l-4.189-52.94a2.447 2.447 0 0 1 2.442-2.444h69.604a2.447 2.447 0 0 1 2.443 2.444l4.19 52.94a2.447 2.447 0 0 1-2.443 2.444"/>
                <path fill="#FFA9AD" fill-rule="nonzero" d="M119.196 24.136H87.444a2.338 2.338 0 0 0-2.338 2.344l3.997 50.724a2.34 2.34 0 0 0 2.343 2.34h4.665l-3.626-45.84a2.447 2.447 0 0 1 2.443-2.444h22.43l1.826-7.124m17.417 0h-4.117l-1.827 7.124h4.13l1.826-7.124m17.525 0h-4.233l-1.827 7.124h8.794l-.38-4.8a2.34 2.34 0 0 0-2.338-2.344"/>
                <path fill="#D67F8A" d="M96.918 31.26H94.94a2.447 2.447 0 0 0-2.443 2.444l3.626 45.84h1.979l-3.626-45.84a2.447 2.447 0 0 1 2.442-2.444"/>
                <path fill="#EE9CA6" fill-rule="nonzero" d="M134.786 31.26h-4.129l-.4 1.6a7.36 7.36 0 0 1 2.527.964A5.39 5.39 0 0 1 133.839 35l.96-3.752m22.07 0h-8.795l-8.762 34.204.072.076c2.306 2.636 4.529 14 4.529 14h-40.87s1.65-10.8 4.533-13.028c.29-.22.594-.418.911-.596l8.882-34.66H96.92a2.447 2.447 0 0 0-2.443 2.444l3.626 45.84h60.05a2.34 2.34 0 0 0 2.338-2.34l-3.634-45.928"/>
                <path fill="#F0F1F4" d="M188.976 83.936h-37.628a1.319 1.319 0 0 1-1.32-1.32L147.767 54a1.32 1.32 0 0 1 1.32-1.32h37.627a1.319 1.319 0 0 1 1.32 1.32l2.266 28.62a1.324 1.324 0 0 1-1.323 1.316zM108.515 31.26H70.887a1.32 1.32 0 0 1-1.32-1.32L67.306 1.32c0-.729.59-1.32 1.32-1.32h37.628a1.319 1.319 0 0 1 1.319 1.32l2.266 28.62a1.324 1.324 0 0 1-1.323 1.32z"/>
                <path fill="#313154" d="M210.478 27.712h12.104v1h-12.104z"/>
                <path fill="#F9C200" d="M232.48 47.032s-4.613 1.2-7.843.904c-3.23-.296-4.121-.656-4.121-.656s-10.601 1.428-14.79 4.504c-4.19 3.076-7.912 34.92-7.692 40.712.22 5.792-.312 23.2-.312 23.2h44.496s3.514-57.68 0-62.4c-3.514-4.72-9.738-6.264-9.738-6.264z"/>
                <path fill="#FFF" d="M128.726 95.868h35.817v1.536h-35.817z"/>
                <path fill="#EDB607" d="M221.375 115.696l2.303-19.828-20.787-35.576-1.2 2.888c-2.238 10.728-3.773 25.544-3.629 29.316.22 5.792-.312 23.2-.312 23.2h23.625z"/>
                <path fill="#313154" d="M111.833 97.408h16.893v-1.54l-16.893-1.244z"/>
                <path fill="#5FD6E6" d="M111.833 94.624h35.817l16.894 1.244h-35.818z"/>
                <path fill="#FBAD83" d="M154.046 91.912s-3.138-2.936-6.692-3.348c-3.553-.412-10.269 2.624-11.089 3.556-.819.932-.271 1.916.472 2.428.744.512 8.239 1.18 10.346.936 2.106-.244 6.691 1.38 6.691 1.38l.272-4.952z"/>
                <path fill="#F9C200" d="M204.926 52.752L181.24 88.524l-29.737 1.408s-2.307 4.064 0 7.476h37.268l11.813-16.164a28.91 28.91 0 0 0 5.336-20.7l-.995-7.792z"/>
                <path fill="#A9C2DC" d="M248.027 60.172h-42.274l-5.288 56.564-1.999 6.1-9.722 6.24h41.55l.172-.06h2.082c6.218 0 11.259-5.042 11.261-11.264l6.192-55.6a2 2 0 0 0-1.974-1.98z"/>
                <path fill="#303D72" d="M206.905 130.904h7.603v64.844h-7.603z"/>
                <path fill="#303D72" d="M205.126 129.076h11.161v7.256h-11.161z"/>
                <path fill="#19192B" d="M206.905 136.332h7.603v6.684h-7.603z"/>
                <path fill="#303D72" d="M203.779 62.152l-6.192 54.896c0 4.418-3.58 8-7.995 8h-9.398a1.975 1.975 0 0 0 0 3.952h10.085c6.218 0 11.259-5.042 11.261-11.264l6.192-55.6a1.98 1.98 0 0 0-2.992-1.789 1.98 1.98 0 0 0-.961 1.789v.016z"/>
                <path fill="#FFF" d="M101.9 97.408h8.138l1.4-16.12H100.5z"/>
                <path fill="#313154" d="M102.927 96.604h6.08l.751-8.652a4.227 4.227 0 0 0-2.522-.056c-1.679.34-2.459-.188-3.722-.58-.531-.164-1.147.5-1.37.256l.783 9.032z"/>
                <path fill="#19192B" d="M234.799 9.708a9.663 9.663 0 0 0-13.991 0c-.24.254-.465.521-.676.8a10.405 10.405 0 0 0-2.202 6.432v8.888h2.306v-8.904a8.063 8.063 0 0 1 2.235-5.6 7.543 7.543 0 0 1 2.562-1.752 7.251 7.251 0 0 1 2.798-.552c2.02.004 3.951.836 5.341 2.304.244.25.47.517.676.8a34.295 34.295 0 0 1 3.162 2c.14.107.274.223.4.348a10.318 10.318 0 0 0-2.611-4.764z"/>
                <path fill="#19192B" d="M224.39 30c0 3.396-1.735 6.148-3.874 6.148-2.139 0-3.854-2.768-3.854-6.148s1.735-6.152 3.874-6.152c2.139 0 3.854 2.74 3.854 6.152z"/>
                <path fill="#60D6E6" d="M222.934 30c0 3.396-1.73 6.148-3.873 6.148-2.143 0-3.87-2.752-3.87-6.148s1.731-6.152 3.87-6.152c2.139 0 3.873 2.74 3.873 6.152z"/>
                <path fill="#19192B" d="M219.149 30c0 1.848-.944 3.348-2.107 3.348-1.163 0-2.11-1.5-2.11-3.348 0-1.848.93-3.368 2.13-3.368 1.2 0 2.087 1.5 2.087 3.368z"/>
                <ellipse cx="216.247" cy="29.984" fill="#60D6E6" rx="2.111" ry="3.352"/>
                <path fill="#19192B" d="M214.664 40.484h-1.6a1.91 1.91 0 0 1-1.77-2.64v-.04l4.05-8.088a.6.6 0 1 1 1.075.532l-3.998 8.068a.712.712 0 0 0 .644.968h1.599a.6.6 0 0 1 0 1.2z"/>
                <path fill="#303D72" d="M119.196 62.14s-8.734 2.152-11.62 4.376c-2.886 2.224-4.533 13.028-4.533 13.028h40.866s-2.223-11.38-4.53-14c-2.306-2.62-11.592-3.272-11.592-3.272l-8.603-.116"/>
                <path fill="#FFF" d="M119.196 62.136l2.635 4.792 2.778-2.396 2.374 2.396.816-4.672-8.603-.12"/>
                <path fill="#FBAD83" d="M119.196 51.104V62.14s1.851 1.572 5.11 1.384c3.013-.176 3.493-1.268 3.493-1.268l1.247-5.724-9.85-5.428"/>
                <path fill="#E68D5C" d="M128.01 61.292c-1.618.36-3.493-.652-4.892-1.764-2.583-2.052-3.626-6.12-3.626-6.12l8.539 2.564 1.015.56-1.035 4.76"/>
                <path fill="#FBAD83" d="M134.415 56.08c-3.01 6.34-10.486 2.596-13.684-.6-3.198-3.196-2.758-15.412-1.874-17.724.883-2.312 8.282-4.192 12.188-2.7 3.905 1.492 6.396 14.688 3.37 21.024"/>
                <path fill="#1A2249" d="M123.058 45.492s.831 7.016 2.75 7.576c1.64.48 3.922-1.864 6.88-2 1.647-.068 2.238.088 2.91.54a14.491 14.491 0 0 1-1.18 4.464c-3.01 6.34-10.485 2.596-13.687-.6-1.547-1.548-2.242-5.2-2.45-8.836l4.777-1.152"/>
                <path fill="#1A2249" d="M121.799 48s.923.088 1.303-.46c.38-.548-.708-3.652.4-6.94.78-2.348 4.325-3.712 7.227-3.14 2.902.572 3.634.828 3.93 0 .295-.828-.868-2.828-1.875-3.6-1.008-.772-5.74-2.196-9.662-.592-3.922 1.604-4.721 2.676-5.597 5.228-.875 2.552-.315 8.944 0 9.352.316.408 4.29.16 4.29.16"/>
                <path fill="#FBAD83" d="M117.35 47.484c0 1.636 2.17 3.088 3.501 3.088s1.323-1.452 1.323-3.088c0-1.636-1.079-2.96-2.398-2.96-1.32 0-2.399 1.328-2.399 2.96"/>
                <path fill="#1A2249" d="M135.598 51.6s0 7.684-.904 9.068c-.903 1.384-3.873 1.688-5.216 1.108-1.343-.58-3.526-2.66-4.07-4.424-.543-1.764 7.955-4.28 7.955-4.28l2.235-1.472"/>
                <path fill="#E68D5C" d="M118.229 46.72c-.152.732.68 1.6 1.28 1.716.599.116-.688-.872-.533-1.6.156-.728 1.2-1.08.616-1.2-.584-.12-1.2.364-1.363 1.096"/>
                <path fill="#FFF" d="M134.047 54.132s-3.198.084-3.718-.088l-.531-.168c.032.935.619 1.76 1.49 2.096a1.83 1.83 0 0 0 2.483-1.004c.196-.548.276-.836.276-.836"/>
                <path fill="#FFB5B9" d="M132.484 24.136h-13.288l-1.827 7.124h13.288l1.827-7.124"/>
                <path fill="#F1ABB3" d="M130.657 31.26h-13.288l-8.882 34.66c3.474-2 10.71-3.78 10.71-3.78v-9.6c-.281-.96-.491-1.94-.628-2.932-.692-.564-1.22-1.324-1.22-2.132v-.196c-.295-1.696-.591-6.628.156-8.8.88-2.552 1.667-3.6 5.597-5.228a10.787 10.787 0 0 1 4.065-.74c1.033.001 2.063.117 3.07.344l.4-1.6"/>
                <path fill="#4F5A87" d="M119.196 62.14s-7.235 1.78-10.709 3.78l-3.494 13.624h13.288l3.334-13.004-2.419-4.4"/>
                <path fill="#FFF" d="M119.196 62.14l2.419 4.4.8-3.104a6.93 6.93 0 0 1-3.199-1.296"/>
                <path fill="#FCB995" d="M119.196 52.548v9.6a6.93 6.93 0 0 0 3.198 1.296l.952-3.716-.244-.192c-2.459-1.952-3.522-5.736-3.618-6.096-.108-.28-.212-.576-.304-.884"/>
                <path fill="#EA9E74" d="M119.5 53.432c.096.36 1.16 4.144 3.618 6.096l.244.192.483-1.876a15.491 15.491 0 0 1-3.122-2.364 5.873 5.873 0 0 1-1.23-2.048"/>
                <path fill="#FCB995" fill-rule="nonzero" d="M118.569 49.6c.137.991.347 1.971.627 2.932.092.308.196.604.304.884a5.873 5.873 0 0 0 1.223 2.064c.934.916 1.98 1.71 3.114 2.364a15.335 15.335 0 0 1-3.114-2.36c-1.119-1.12-1.795-3.344-2.158-5.864m10.553-12.276c-2.474.08-4.969 1.34-5.596 3.264a12.035 12.035 0 0 0-.432 4.884s.647 5.476 2.123 7.14l3.905-15.288"/>
                <path fill="#3C4364" d="M123.058 45.492c.088 1.052.212 1.812.044 2.056-.23.278-.568.442-.928.452 0 1.412-.131 2.572-1.323 2.572a3.996 3.996 0 0 1-2.278-.956c.363 2.52 1.04 4.744 2.158 5.864.934.916 1.98 1.71 3.114 2.36l1.336-5.2c-1.476-1.664-2.123-7.14-2.123-7.14"/>
                <path fill="#3C4364" d="M127.175 32.528a10.787 10.787 0 0 0-4.053.74c-3.934 1.6-4.721 2.676-5.597 5.228-.747 2.164-.451 7.096-.156 8.8.084-1.544 1.132-2.764 2.399-2.764 1.267 0 2.398 1.328 2.398 2.96V48c.36-.01.698-.174.928-.452.168-.244.044-1.004-.044-2.056a12.035 12.035 0 0 1 .432-4.884c.64-1.924 3.134-3.2 5.596-3.264l1.147-4.472a14.043 14.043 0 0 0-3.07-.344"/>
                <path fill="#FCB995" fill-rule="nonzero" d="M119.592 48.448h-.084c-.6-.128-1.431-.984-1.28-1.716a1.312 1.312 0 0 1 1.176-1.132c.063-.006.126-.006.188 0 .596.128-.46.476-.616 1.2-.155.724.984 1.6.616 1.6m.172-3.924c-1.28 0-2.327 1.2-2.399 2.764v.196c0 .8.528 1.568 1.22 2.132.64.551 1.437.886 2.278.956 1.2 0 1.311-1.16 1.323-2.572v-.516c0-1.632-1.079-2.96-2.398-2.96"/>
                <path fill="#EA9E74" d="M119.404 45.6a1.312 1.312 0 0 0-1.175 1.116c-.152.732.68 1.6 1.28 1.716h.083c.368 0-.763-.928-.616-1.6.148-.672 1.2-1.08.616-1.2a1.035 1.035 0 0 0-.188 0"/>
                <path fill="#FFB5B9" d="M149.9 24.136h-13.287l-1.827 7.124h13.292l1.823-7.124"/>
                <path fill="#F1ABB3" d="M148.074 31.26h-13.288l-.959 3.752c.592.868 1.011 1.892.82 2.44a.752.752 0 0 1-.848.548 1.806 1.806 0 0 1-.204 0c1.647 3.396 2.547 9 1.999 13.632 0 0 0 7.684-.904 9.068-.611.948-2.194 1.388-3.561 1.388a4.347 4.347 0 0 1-1.655-.28 6.128 6.128 0 0 1-1.383-.888l-.296 1.352s9.094.62 11.513 3.2l8.762-34.192"/>
                <path fill="#4F5A87" d="M127.799 62.256l-.8 4.672-1.079-1.072-3.51 13.688h13.292l3.598-14.092c-2.419-2.576-11.513-3.2-11.513-3.2"/>
                <path fill="#FFF" d="M127.799 62.256s-.204.46-1.167.832l-.712 2.768 1.063 1.072.8-4.672"/>
                <path fill="#FCB995" d="M128.095 60.904l-.084.4c-.23.048-.465.072-.7.072h-.236l-.443 1.732c.963-.372 1.167-.832 1.167-.832l.296-1.352"/>
                <path fill="#EA9E74" d="M127.36 60.244l-.285 1.112h.236c.235 0 .47-.024.7-.072l.084-.4c-.248-.2-.496-.424-.736-.66"/>
                <path fill="#FCB995" d="M133.08 37.924l-3.598 14.04c1-.498 2.085-.8 3.198-.888h.675c1.152 0 1.663.172 2.23.556.549-4.632-.35-10.236-1.998-13.632-.152 0-.32-.032-.515-.06"/>
                <path fill="#3C4364" d="M133.363 51.06h-.675a8.722 8.722 0 0 0-3.198.888l-.712 2.776c.36-.156.724-.304 1.084-.444a2.113 2.113 0 0 1-.056-.42l.531.168a.615.615 0 0 0 .116.028 49.958 49.958 0 0 1 2.918-.984l2.235-1.472c-.568-.4-1.08-.556-2.23-.556M133.827 35.012l-.747 2.912c.195.028.363.052.515.06.068.004.136.004.204 0a.752.752 0 0 0 .848-.54c.191-.548-.228-1.572-.82-2.44"/>
                <path fill="#3C4364" d="M135.598 51.6l-2.235 1.472s-1.339.4-2.918.984c.645.068 1.294.095 1.943.08h1.659s-.08.288-.276.836a1.795 1.795 0 0 1-1.67 1.16 2.281 2.281 0 0 1-.8-.156 2.236 2.236 0 0 1-1.435-1.676c-.36.14-.724.288-1.084.444l-1.41 5.504c.239.236.487.46.735.66.419.357.884.655 1.383.888.528.2 1.09.295 1.655.28 1.367 0 2.95-.44 3.561-1.388.896-1.384.904-9.068.904-9.068"/>
                <path fill="#FFF" d="M129.798 53.876c.004.142.023.282.056.42.15.772.695 1.409 1.435 1.676.255.1.525.152.8.156a1.795 1.795 0 0 0 1.67-1.16c.196-.548.276-.836.276-.836h-1.659a15.285 15.285 0 0 1-1.943-.08.615.615 0 0 1-.116-.028l-.531-.168"/>
                <path fill="#00C99C" d="M180.693 58.272h-29.665l-.276-2.144h29.665zM181.6 66.928h-29.664l-.276-2.14h29.665zM185.774 62.436H151.4l-.316-2.144h34.37z"/>
                <path fill="#19192B" d="M250.797 144.232h-5.753c-5.873.004-10.632 4.767-10.637 10.644v27.2c.007 5.875 4.766 10.636 10.637 10.64h6.472v-3.6h-6.472a7.05 7.05 0 0 1-7.047-7.052v-27.2a7.05 7.05 0 0 1 7.047-7.04h5.753v-3.592z"/>
                <rect width="11.353" height="12.448" x="260.247" y="134.836" fill="#19192B" rx="2.732"/>
                <rect width="11.353" height="12.448" x="262.297" y="134.836" fill="#0CBFD1" rx="2.732"/>
                <rect width="37.324" height="56.06" x="242.182" y="139.688" fill="#303D72" rx="4.8"/>
                <rect width="37.324" height="56.06" x="250.797" y="139.688" fill="#60D6E6" rx="4.8"/>
                <rect width="29.969" height="12.448" x="254.474" y="143.816" fill="#19192B" rx="2.732"/>
                <rect width="29.969" height="12.448" x="256.089" y="143.816" fill="#303D72" rx="2.732"/>
                <path fill="#FFB0B2" d="M100.108 5.532H70.443l-.272-2.144h29.662zM101.016 14.192H71.35l-.276-2.144h29.665zM105.19 9.696H70.818l-.32-2.14h34.374z"/>
                <path fill="#00B98F" d="M48.69 132.524s.455-14.104 0-34.884c-.457-20.78 22.76-39.712 41.94-30.248 0 0-12.312.152-21.074 7.772-8.763 7.62-13.735 12.088-14.447 25.136-.712 13.048-3.33 32.224-3.33 32.224h-3.09z"/>
                <path fill="#00B98F" d="M40.25 132.484s-1.519-41.244-6.467-57.32c-4.95-16.076 1.678-52.096 1.678-52.096s.24 27.82 4.266 41.516c4.025 13.696 10.913 31.388 9.594 47.424-1.32 16.036-4.713 20.516-4.713 20.516l-4.358-.04z"/>
                <path fill="#068E6A" d="M43.656 78.084l-10.253-3.388c.044.156.088.316.136.468 4.949 16.076 6.468 57.32 6.468 57.32l4.365.04s3.398-4.484 4.713-20.516c.911-11.14-2.135-23.08-5.429-33.924z"/>
                <path fill="#00C99C" d="M40.718 132.524s6.516-20.568-4.84-53.324c-11.358-32.756-25.4-40.26-25.4-40.26s12.66 27.6 17.956 49.2c5.297 21.6 5.365 44.4 5.365 44.4l6.92-.016z"/>
                <path fill="#068E6A" d="M56.08 77.2c-4.657 5.752-7.543 12.976-7.383 20.436.448 20.8 0 34.884 0 34.884h3.098s2.618-19.176 3.33-32.224c.512-9.376 3.222-14.324 7.959-19.2L56.08 77.2z"/>
                <path fill="#00C99C" d="M43.788 132.524s3.438-19.784-.356-47.788C39.64 56.732 75.708 32.072 75.708 32.072S56.764 54.284 53.342 72.296c-3.422 18.012-.7 40.284-2.87 51.472-1.335 6.892-1.451 8.756-1.451 8.756h-5.233z"/>
                <path fill="#00C99C" d="M51.787 132.524s1.91-12.368 1.675-30.7c-.236-18.332 11.4-33.688 0-60.84S34.042 14.54 34.042 14.54s13.5-1.2 22.97 15.876c9.47 17.076 11.433 39.024 5.197 60.084-6.237 21.06-5.845 42.024-5.845 42.024h-4.577z"/>
                <path fill="#00B98F" d="M40.718 132.524s5.153-16.264-1.69-42.924l-10.966-2.94c.128.496.252.992.376 1.484 5.297 21.6 5.36 44.4 5.36 44.4l6.92-.02zM44.512 93.968c2.022 23.024-.676 38.556-.676 38.556h5.237s.112-1.864 1.45-8.756c1.404-7.24.752-19.116 1.048-31.476l-7.06 1.676zM53.478 103.3c.12 17.516-1.687 29.224-1.687 29.224h4.573c.028-8.676.766-17.336 2.207-25.892l-5.093-3.332z"/>
                <path fill="#FF9398" d="M32.028 132.128c-6.116 7.228-10.126 19.264-10.126 32.896 0 12.38 3.306 23.448 8.499 30.8H60.47c5.196-7.344 8.498-18.4 8.498-30.8 0-13.632-3.997-25.668-10.13-32.896h-26.81z"/>
                <path fill="#F4828B" d="M49.924 132.128H32.028c-6.116 7.228-10.126 19.264-10.126 32.896 0 12.38 3.306 23.448 8.499 30.8h19.523v-63.696z"/>
            </g>
        </g>
    </g>
</svg>
