<svg xmlns="http://www.w3.org/2000/svg" width="64" height="64" viewBox="0 0 64 64">
    <g fill="none" fill-rule="evenodd">
        <circle cx="32" cy="32" r="32" fill="#FFBA02"/>
        <path d="M13 14h38v38H13z"/>
        <path fill="#25294A" d="M19.54 20.038l28.254 7.57a2 2 0 0 1 1.414 2.45l-3.882 14.49a2 2 0 0 1-2.45 1.414l-28.253-7.57a2 2 0 0 1-1.414-2.45l3.882-14.49a2 2 0 0 1 2.45-1.414zm10.03 19.08a6.333 6.333 0 1 0 3.278-12.236 6.333 6.333 0 0 0-3.279 12.236z" opacity=".3"/>
        <path fill="#25294A" d="M16.583 23.5h29.25a2 2 0 0 1 2 2v15a2 2 0 0 1-2 2h-29.25a2 2 0 0 1-2-2v-15a2 2 0 0 1 2-2zm14.625 15.833a6.333 6.333 0 1 0 0-12.666 6.333 6.333 0 0 0 0 12.666zm0-3.166a3.167 3.167 0 1 0 0-6.334 3.167 3.167 0 0 0 0 6.334z"/>
    </g>
</svg>
