<svg xmlns="http://www.w3.org/2000/svg" width="48" height="48" viewBox="0 0 48 48">
    <g fill="none" fill-rule="evenodd">
        <circle cx="24" cy="24" r="24" fill="#FFBA02"/>
        <path d="M7 7h34v34H7z"/>
        <path fill="#000" d="M23.88 27.036l3.122-3.123a2.833 2.833 0 0 0 .53-3.27l-.176-.354a2.833 2.833 0 0 1 .53-3.27l3.872-3.872a.708.708 0 0 1 1.134.184l1.564 3.128a6.216 6.216 0 0 1-1.164 7.174l-8.498 8.499a7.688 7.688 0 0 1-7.868 1.857l-3.42-1.14a.708.708 0 0 1-.278-1.173l3.756-3.756a2.833 2.833 0 0 1 3.271-.53l.354.176a2.833 2.833 0 0 0 3.27-.53z"/>
    </g>
</svg>
