<svg xmlns="http://www.w3.org/2000/svg" width="64" height="64" viewBox="0 0 64 64">
    <g fill="none" fill-rule="evenodd">
        <circle cx="32" cy="32" r="32" fill="#FFBA02"/>
        <path d="M13 13h38v38H13z"/>
        <path fill="#25294A" d="M19.333 19.333h25.334a3.167 3.167 0 0 1 3.166 3.167v19a3.167 3.167 0 0 1-3.166 3.167H19.333a3.167 3.167 0 0 1-3.166-3.167v-19a3.167 3.167 0 0 1 3.166-3.167z" opacity=".3"/>
        <path fill="#25294A" d="M42.292 30.417H21.708a2.375 2.375 0 0 0-2.375 2.375v.791h7.261c.42 0 .823.167 1.12.464l1.583 1.583a3.823 3.823 0 0 0 5.406 0l1.583-1.583c.297-.297.7-.464 1.12-.464h7.26v-.791a2.375 2.375 0 0 0-2.374-2.375zM21.708 22.5a2.375 2.375 0 0 0-2.375 2.375v.792h25.334v-.792a2.375 2.375 0 0 0-2.375-2.375H21.708z"/>
    </g>
</svg>
