<svg xmlns="http://www.w3.org/2000/svg" xmlns:xlink="http://www.w3.org/1999/xlink" width="23" height="19" viewBox="0 0 23 19">
    <defs>
        <path id="a" d="M22.408 7.847a4.553 4.553 0 0 0 1.984-2.514 8.982 8.982 0 0 1-2.867 1.102A4.491 4.491 0 0 0 18.23 5c-2.493 0-4.514 2.034-4.514 4.544 0 .357.041.703.117 1.036-3.75-.189-7.075-1.999-9.302-4.748a4.536 4.536 0 0 0-.61 2.285 4.55 4.55 0 0 0 2.007 3.781 4.452 4.452 0 0 1-2.044-.568v.058a4.538 4.538 0 0 0 3.62 4.455 4.477 4.477 0 0 1-2.038.077 4.525 4.525 0 0 0 4.217 3.157 9.028 9.028 0 0 1-5.607 1.944c-.364 0-.724-.02-1.077-.063A12.708 12.708 0 0 0 9.92 23c8.3 0 12.84-6.924 12.84-12.929 0-.198-.004-.392-.012-.587A9.21 9.21 0 0 0 25 7.132c-.809.36-1.68.604-2.592.715z"/>
    </defs>
    <g fill="none" fill-rule="evenodd" transform="translate(-2.821 -4.541)">
        <mask id="b" fill="#fff">
            <use xlink:href="#a"/>
        </mask>
        <use fill="#FFF" xlink:href="#a"/>
        <g fill="#CCC" mask="url(#b)">
            <path d="M0 0h28v28H0z"/>
        </g>
    </g>
</svg>
