<svg xmlns="http://www.w3.org/2000/svg" xmlns:xlink="http://www.w3.org/1999/xlink" width="371" height="177" viewBox="0 0 371 177">
    <defs>
        <path id="a" d="M6 0h359a6 6 0 0 1 6 6v171H0V6a6 6 0 0 1 6-6z"/>
    </defs>
    <g fill="none" fill-rule="evenodd">
        <mask id="b" fill="#fff">
            <use xlink:href="#a"/>
        </mask>
        <use fill="#F9F6EC" xlink:href="#a"/>
        <g mask="url(#b)">
            <path fill="#A55B3A" d="M155.188 79.92s-3.536 0-4.36.616c-.825.617-1.802 3.186-1.68 4.081.121.896 7.139 0 7.139 0l-1.1-4.697z"/>
            <path fill="#F9C200" d="M234.117 47.274l15.377 4.814c1.23.382 3.31 2.002 3.351 3.442l2.027 67.443-49.96-1.31 3.897-68.023 14.228-6.195 11.08-.171z"/>
            <path fill="#EDB607" d="M206.16 101.93l19.638 9.264 28.7-4.571-1.293-43.004-9.773-1.89-1.217 6.799a14.902 14.902 0 0 1-12.827 12.148l-22.17 2.762-1.058 18.492z"/>
            <path fill="#303D72" d="M290.513 239.332c-4.782-.015-8.654-3.884-8.666-8.66V95.59a8.659 8.659 0 0 1 4.276-7.665 8.678 8.678 0 0 1 8.784 0 8.659 8.659 0 0 1 4.276 7.665v135.08c-.012 4.778-3.887 8.649-8.67 8.661z"/>
            <path fill="#F0F1F4" d="M92.955 86.93h195.553c2.509 0 4.915.995 6.689 2.767a9.443 9.443 0 0 1 2.77 6.681v133.483c0 2.506-.997 4.91-2.77 6.681a9.464 9.464 0 0 1-6.689 2.768H92.955c-5.224 0-9.459-4.23-9.459-9.449V96.401a9.443 9.443 0 0 1 2.762-6.696 9.464 9.464 0 0 1 6.697-2.775z"/>
            <path fill="#60D6E6" d="M92.842 94.56a1.974 1.974 0 0 1-3.368 1.393 1.97 1.97 0 0 1 1.395-3.363 1.976 1.976 0 0 1 1.973 1.97zM100.954 94.56a1.974 1.974 0 0 1-3.368 1.393 1.97 1.97 0 0 1 1.395-3.363 1.976 1.976 0 0 1 1.973 1.97zM108.84 94.56a1.974 1.974 0 0 1-3.37 1.392 1.97 1.97 0 0 1 1.402-3.362 1.972 1.972 0 0 1 1.969 1.97z"/>
            <path fill="#F9C200" d="M208.809 53.64L186.9 79.286h-32.33s-.825 3.599 0 5.822l.82 2.204s30.069 1.899 33.158 2.079c3.09.18 19.143-15.747 19.143-15.747l1.117-20.004z"/>
            <path fill="#FFB0B2" d="M141.784 116.861l8.966-36.712 116.557 28.404-8.966 36.713z"/>
            <path fill="#FF9398" d="M150.71 80.5l-8.909 36.372 53.45 13.03-6.702-40.498z"/>
            <path fill="#0CBFD1" d="M102.053 115.711l27.596 7.262 12.612-23.166 4.954 1.898s-8.787 24.98-11.395 29.506c-2.608 4.526-34.87-3.865-34.87-3.865l1.103-11.635z"/>
            <path fill="#A55B3A" d="M150.71 80.487a6.1 6.1 0 0 0-4.085 2.317c-1.702 2.173-.405 5.04 1.352 6.902 1.756 1.863 4.17 2.119 5.625 1.282 1.455-.837 1.257-5.125.527-7.51-.73-2.384-3.418-2.991-3.418-2.991z"/>
            <path fill="#FFF" fill-rule="nonzero" d="M235.653 131.715l-.216-.054-67.228-16.386.054-.22 5.207-21.327.22.054 67.228 16.4-.054.22-5.211 21.313zm-66.904-16.773l66.57 16.229 5.05-20.67-66.57-16.228-5.05 20.669z"/>
            <path fill="#A55B3A" d="M251.224 101.93s-3.23 6.925-4.671 9.188c-1.441 2.263-3.91 2.677-6.108 2.33-2.198-.346-.482-5.484.41-8.296l.901-2.812-3.432-.82s.752-1.371 3.153-1.799a10.767 10.767 0 0 0 3.981-1.507l5.766 3.716z"/>
            <path fill="#F9C200" d="M242.04 60.52c-1.027 4.948 23.871 14.608 23.871 14.608l-21.583 23.04a5.626 5.626 0 0 0 3.297 3.704c2.675 1.026 4.117 1.026 4.117 1.026s23.871-16.868 26.574-25.507c2.702-8.638-27.124-25.303-29.007-25.303-1.882 0-6.238 3.496-7.27 8.431z"/>
            <path fill="#1A2249" fill-rule="nonzero" d="M117.533 100.625c-1.981 0-3.603-2.078-3.603-4.634 0-2.555 1.608-4.634 3.603-4.634 1.996 0 3.604 2.079 3.604 4.634 0 2.556-1.626 4.634-3.604 4.634zm0-8.818c-1.734 0-3.152 1.876-3.152 4.184 0 2.308 1.405 4.185 3.152 4.185 1.748 0 3.153-1.877 3.153-4.185s-1.423-4.184-3.153-4.184zM126.015 101.395c-1.802 0-3.252-1.88-3.252-4.198 0-2.317 1.459-4.198 3.252-4.198 1.792 0 3.256 1.885 3.256 4.198 0 2.313-1.46 4.198-3.256 4.198zm0-7.946c-1.545 0-2.802 1.683-2.802 3.748 0 2.065 1.257 3.748 2.802 3.748 1.545 0 2.806-1.678 2.806-3.748 0-2.07-1.257-3.748-2.806-3.748z"/>
            <path fill="#FBAD83" d="M118.074 105.233l-.185 6.749s-.774 1.633-5.63 2.065a5.796 5.796 0 0 1-4.225-1.517l-.96-10.798 11 3.5z"/>
            <path fill="#E68D5C" d="M118.182 106.438l-.27 4.702a2.286 2.286 0 0 1-1.351-.117c-2.32-.9-2.036-3.482-3.482-8.215l5.103 3.63z"/>
            <path fill="#FBAD83" d="M125.776 85.958s1.135 11.248-.45 16.715c-1.586 5.466-6.527 7.756-10.887 6.748-1.617-.373-7.481-6.955-8.224-15.09-.744-8.135-.032-10.587 1.292-12.31 1.325-1.723 13.36-3.86 15.548-1.98 2.19 1.881 2.72 5.917 2.72 5.917z"/>
            <path fill="#1A2249" d="M105.917 79.92s-2.346 2.7-2.144 9.484c.203 6.785 1.753 11.775 3.707 13.845 1.955 2.07 8.72 1.975 10.81.84 2.09-1.133 5.887-5.497 5.68-8.098-.086-1.116-.194-2.569-.289-3.86a3.726 3.726 0 0 1 2.86-3.892l.83-.193s.513-6.686-3.09-9.449c-3.604-2.762-7.932-2.983-12.256-1.849-4.324 1.134-6.108 3.172-6.108 3.172z"/>
            <path fill="#FBAD83" d="M118.587 98.853c0 1.601 2.13 3.023 3.437 3.023 1.306 0 1.297-1.422 1.297-3.023 0-1.602-1.058-2.898-2.364-2.898-1.307 0-2.37 1.296-2.37 2.898z"/>
            <path fill="#E68D5C" d="M119.619 98.146c.153-.782 1.329-1.277 1.973-1.156.644.122-1.04.576-1.194 1.35-.153.774.743 1.566.104 1.444a1.35 1.35 0 0 1-.883-1.638z"/>
            <path fill="#1A2249" d="M114.745 85.013a9.56 9.56 0 0 1-5.906 8.837 9.579 9.579 0 0 1-10.433-2.072 9.553 9.553 0 0 1-2.074-10.421 9.571 9.571 0 0 1 8.847-5.9c5.283 0 9.566 4.278 9.566 9.556zM122.38 96.05h6.666v1h-6.666z"/>
            <path fill="#303D72" d="M99.391 170.296s-1.982 5.224.396 12.89c1.707 5.49 10.918 6.038 10.918 6.038l14.95 41.69-1.937 51.291s4.792 3.033 8.107 1.93l3.32-1.102s3.58-49.941 3.323-55.696c-.256-5.754-6.643-57.036-6.643-57.036l-32.434-.005z"/>
            <path fill="#27345E" d="M131.83 170.296H99.4s-1.194 3.15-.617 8.148l17.269 2.592 18.255 9.327a10038.253 10038.253 0 0 0-2.478-20.067z"/>
            <path fill="#FBAD83" d="M174.546 128.467l3.153-2.844 7.139 1.746s.685-2.812 1.527-3.393c.842-.58 2.473-.287 2.473-.287s-1.1 4.814-1.838 6.528c-.739 1.714-7.053 2.25-8.107 2.092a2.078 2.078 0 0 0-1.51.238l-2.837-4.08z"/>
            <path fill="#60D6E6" d="M117.89 111.982l11.904 4.814 5.751 54.625s-28.484 11.018-39.005 0l2.968-51.417a6.66 6.66 0 0 1 4.256-5.85l4.27-1.642 9.855-.53z"/>
            <path fill="#50CAD3" d="M119.281 175.641a87.333 87.333 0 0 0 16.215-4.234l-4.446-42.058-7.796-1.917-3.973 48.21z"/>
            <path fill="#60D6E6" d="M129.794 116.782l21.687 21.835 23.484-10.92c.899.958 1.64 2.051 2.198 3.24l1.09 2.19s-23.192 13.724-28.002 15.298c-4.81 1.575-30.686-24.745-30.686-24.745l10.229-6.898z"/>
            <path fill="#FBAD82" d="M142.986 100.077s.212-3.546 1.878-5.683c1.667-2.137 3.018-2.457 3.018-2.457l-1.113 4.644s-.26.67.82.729c1.081.058 1.198-2.102 2.513-2.309 1.316-.207 1.433 0 1.433 0s-1.351 3.244-2.455 4.414a49.366 49.366 0 0 0-1.99 2.25l-4.104-1.588z"/>
            <path fill="#60D6E6" d="M189.252 160.623h31.326v31.292h-31.326z"/>
            <path fill="#60D6E6" fill-rule="nonzero" d="M248.044 188.059h-23.606v-23.58h23.606v23.58zm-23.156-.45h22.705v-22.68h-22.705v22.68z"/>
            <path fill="#FFF" fill-rule="nonzero" d="M265.258 188.059c-6.649 0-12.039-5.384-12.039-12.026 0-6.642 5.39-12.027 12.04-12.027 6.649 0 12.039 5.385 12.039 12.027-.008 6.638-5.394 12.019-12.04 12.026zm0-23.603c-6.4 0-11.589 5.183-11.589 11.577 0 6.393 5.189 11.576 11.59 11.576 6.4 0 11.588-5.183 11.588-11.576-.007-6.39-5.191-11.57-11.589-11.577z"/>
            <path fill="#FFF" d="M234.644 47.274s-1.46 6.105-6.864 5.646c-5.405-.459-5.405-5.196-5.405-5.196l12.27-.45z"/>
            <path fill="#A55B3A" d="M234.644 31.315v16.12s-2.702 2.115-7.4 1.84c-4.37-.251-4.856-1.551-4.856-1.551l-2.013-8.549 14.27-7.86z"/>
            <path fill="#8E4A2F" d="M221.875 46.045c2.347.522 5.063-.936 7.09-2.546 3.738-2.97 5.251-8.855 5.251-8.855l-12.368 3.712-1.473.81 1.5 6.88z"/>
            <path fill="#1A2249" d="M212.853 12.099s-2.117.787-1.968 5.849c.068 2.393.964 6.924.964 6.924l5.517-14.078-4.513 1.305z"/>
            <path fill="#A55B3A" d="M212.597 38.514c4.36 9.169 15.187 3.752 19.818-.869 4.63-4.62 3.995-22.289 2.702-25.645-1.293-3.357-11.958-6.052-17.633-3.892-5.676 2.16-9.252 21.236-4.887 30.406z"/>
            <path fill="#1A2249" d="M229.05 23.198s-1.203 10.146-3.982 10.947c-2.378.693-5.684-2.7-9.967-2.88-2.387-.103-3.248.122-4.216.779.22 2.23.796 4.409 1.707 6.456 4.36 9.17 15.188 3.752 19.818-.868 2.252-2.25 3.252-7.532 3.55-12.778l-6.91-1.656z"/>
            <path fill="#1A2249" d="M230.874 26.834s-1.351.135-1.887-.662c-.536-.796 1.022-5.282-.563-10.038-1.13-3.396-6.265-5.363-10.472-4.54-4.207.824-5.26 1.197-5.693-.026-.433-1.224 1.261-4.086 2.702-5.224 1.442-1.138 8.297-3.15 13.994-.823 5.698 2.326 6.838 3.874 8.108 7.563 1.27 3.69.45 12.93 0 13.525-.45.594-6.189.225-6.189.225z"/>
            <path fill="#A55B3A" d="M237.32 26.082c0 2.362-3.153 4.463-5.077 4.463-1.923 0-1.914-2.1-1.914-4.463 0-2.362 1.563-4.283 3.495-4.283 1.933 0 3.496 1.917 3.496 4.283z"/>
            <path fill="#1A2249" d="M210.885 32.057s0 11.113 1.306 13.115c1.306 2.003 5.612 2.439 7.558 1.602 1.946-.837 5.108-3.847 5.896-6.398.788-2.55-11.521-6.19-11.521-6.19l-3.239-2.129z"/>
            <path fill="#8E4A2F" d="M236.04 24.975c.226 1.062-.982 2.3-1.846 2.48-.865.18.995-1.26.77-2.322-.225-1.062-1.757-1.557-.9-1.741.855-.185 1.756.526 1.976 1.583z"/>
            <path fill="#FFF" d="M213.133 35.693s4.612.121 5.382-.126l.77-.243s0 2.25-2.157 3.032c-2.158.783-3.315-.657-3.604-1.453-.288-.796-.391-1.21-.391-1.21z"/>
            <path fill="#1A2249" d="M214.281 21.673a.45.45 0 0 1-.148-.027 6.506 6.506 0 0 0-3.55 0 .45.45 0 0 1-.247-.864 7.214 7.214 0 0 1 4.094 0 .45.45 0 0 1-.149.873v.018zM222.069 22.82a.45.45 0 0 1-.343-.153c-.072-.08-1.684-1.858-4.598-.931a.45.45 0 1 1-.275-.855c3.5-1.116 5.472 1.098 5.554 1.197a.45.45 0 0 1-.338.742zM207.809 25.029h2.851v1h-2.851z"/>
            <path fill="#1A2249" fill-rule="nonzero" d="M211.169 30.847c-1.977 0-3.603-2.079-3.603-4.634 0-2.556 1.608-4.635 3.603-4.635s3.603 2.08 3.603 4.635c0 2.555-1.621 4.634-3.603 4.634zm0-8.819c-1.73 0-3.153 1.877-3.153 4.185s1.405 4.184 3.153 4.184c1.747 0 3.153-1.876 3.153-4.184 0-2.308-1.424-4.185-3.153-4.185zM219.578 30.847c-1.977 0-3.603-2.079-3.603-4.634 0-2.556 1.612-4.635 3.603-4.635 1.99 0 3.603 2.08 3.603 4.635 0 2.555-1.626 4.634-3.603 4.634zm0-8.819c-1.73 0-3.153 1.877-3.153 4.185s1.41 4.184 3.153 4.184 3.153-1.876 3.153-4.184c0-2.308-1.423-4.185-3.153-4.185z"/>
            <path fill="#1A2249" d="M222.857 25.029h7.468v1h-7.468zM214.533 25.029h1.68v1h-1.68z"/>
            <path fill="#A9C2DC" d="M339.914 189.67a1.014 1.014 0 0 1-.262 0 1.25 1.25 0 0 1-.973-1.413l1.135-11.109a1.165 1.165 0 0 1 1.23-1.124c.648.135 1.076.754.973 1.408l-1.135 11.13a1.188 1.188 0 0 1-.968 1.108z"/>
            <path fill="#303D72" d="M290.986 193.116c-.19.023-.388.04-.581.054a7.345 7.345 0 0 1-5.919-2.564 8.452 8.452 0 0 1-1.981-6.48l.873-8.071a1.571 1.571 0 0 1 1.635-1.453 1.5 1.5 0 0 1 1.293 1.718l-.87 8.1a5.251 5.251 0 0 0 1.221 4.003 4.506 4.506 0 0 0 3.644 1.566c2.5-.135 4.504-2.37 4.558-5.093v-1.048a1.575 1.575 0 0 1 1.505-1.607 1.514 1.514 0 0 1 1.445 1.611v1.049c-.072 4.22-3.035 7.711-6.823 8.215z"/>
            <path fill="#00C99C" d="M298.994 196.612a1.515 1.515 0 0 1-.32 0 1.755 1.755 0 0 1-1.527-1.935l1.352-18.937c.027-.97.83-1.738 1.801-1.723a1.718 1.718 0 0 1 1.527 1.912l-1.351 19.014a1.76 1.76 0 0 1-1.482 1.669z"/>
            <path fill="#A9C2DC" d="M316.96 172.86l-32.037 4.91a1.438 1.438 0 0 1-1.626-1.35 1.629 1.629 0 0 1 1.302-1.8l32.02-5.048a1.478 1.478 0 0 1 1.634 1.412 1.67 1.67 0 0 1-1.292 1.877z"/>
            <path fill="#A9C2DC" d="M323.528 188.82c-.19.026-.383.044-.581.053a7.309 7.309 0 0 1-5.937-2.7 9.113 9.113 0 0 1-2.018-6.748l.834-8.405a1.48 1.48 0 0 1 2.394-1.196c.45.351.658.931.533 1.489l-.824 8.431a5.647 5.647 0 0 0 1.243 4.18 4.506 4.506 0 0 0 3.653 1.656c2.504-.13 4.504-2.448 4.536-5.282v-1.089a1.489 1.489 0 0 1 2.28-1.455c.49.312.752.88.674 1.455v1.093c-.054 4.396-2.99 8.018-6.787 8.517z"/>
            <path fill="#303D72" d="M336.423 179.47l11.116-1.597a2.05 2.05 0 0 0 1.378-3.323 2.05 2.05 0 0 0-1.964-.727l-11.111 1.598a2.045 2.045 0 1 0-1.388 3.324 2.05 2.05 0 0 0 1.969.725"/>
            <path fill="#50CAD3" d="M189.252 164.703l27.115 27.212h-27.115z"/>
        </g>
    </g>
</svg>
